<svg version="1.2" xmlns="http://www.w3.org/2000/svg" viewBox="0 0 746 794" width="746" height="794"><style>.a{fill:#434343}</style><filter id="f0"><feFlood flood-color="#ffffff" flood-opacity="1" /><feBlend mode="normal" in2="SourceGraphic"/><feComposite in2="SourceAlpha" operator="in" /></filter><g filter="url(#f0)"><path fill-rule="evenodd" class="a" d="m53 0h594.9v794h-594.9v-139.8h49.5v-55.8h-49.5v-391.8h51.2v-60.7h-51.2zm149.3 319.8c12.9 41.6 40.4 90.4 77.8 139.8l-0.2 0.2c1.9 2.4 3.8 4.5 5.7 6.8 1.7 2.4 3.5 4.7 5.3 7.1l0.3-0.2c39.8 47.6 81.5 85.7 119.6 108.2 51.3 30.1 87.8 16.5 104.6 5.7 1.5-1.1 13.6-10.3 17.7-13.4l0.2-0.1c0 0 0.1-0.2 0.3-0.4l1.1-0.8-0.2-0.2c6.2-5.9 11.2-12.3 14.6-20.3 9-21-10.6-42.8-21.6-56.5-11-13.7-28.6-33.5-43.7-35.4-9.4-1.1-20 6.5-30.4 13.7-2.1 1-17.8 10.3-19.8 10.8-10 2.9-31.6 3.8-44.7-8.1-12.5-11.4-32.3-32.5-48.3-51.9-15.3-19.9-31.4-43.8-39.5-58.6-8.7-15.1-2.5-35.3 2.8-44.2 1-1.6 12.8-13.5 15.4-16.4l0.3 0.5c9.7-8.1 20-16.3 21.1-25.3 1.9-14.8-13.4-36.5-24.3-50.1-11-13.8-27.8-37.8-50.9-34.4-8.6 1.3-16.2 4.3-23.4 8.6l-0.3-0.2c-0.1 0.1-0.9 0.6-1.2 1-0.2 0.1-0.4 0.2-0.8 0.3l0.3 0.1c-4.3 3.2-16.4 12.3-17.9 13.5-14.8 13.2-37.3 44.2-19.9 100.2z"/><path fill-rule="evenodd" class="a" d="m0 150h48.9v49.6h-48.9z"/><path fill-rule="evenodd" class="a" d="m0 600h48.9v47.1h-48.9z"/><path fill-rule="evenodd" class="a" d="m700 100h45.8v143.8l-45.8-0.1z"/><path fill-rule="evenodd" class="a" d="m700 550h44.4v142.4h-44.4z"/><path fill-rule="evenodd" class="a" d="m700 300h45v194.8l-45-0.1z"/></g></svg>