<svg version="1.2" xmlns="http://www.w3.org/2000/svg" viewBox="0 0 770 776" width="770" height="776"><style></style><filter id="f0"><feFlood flood-color="#ffffff" flood-opacity="1" /><feBlend mode="normal" in2="SourceGraphic"/><feComposite in2="SourceAlpha" operator="in" /></filter><g filter="url(#f0)"><path  d="m391.2 567.5c21.2 14.6 54.3 29 88 29q6 0 11.9-0.6c20.9-2.3 42.2-10.7 56.9-22.7 0.3-0.2 22.3-18.6 22.6-37.2 0.2-20.6-18.6-41.2-37.7-60.2-29.7-31.5-49.7-43.6-82.7-27.7q-1.2 0.6-2.2 1.3c-6.3 0-28.3-12.8-46.7-40.5-4.4-6.5-8.6-13.7-12.6-21.3-4.1-7.6-7.6-15.1-10.5-22.5-13.1-32.3-10.4-56.5-7.1-61.4q1.2-0.4 2.3-1c31.8-18.4 33.1-41.7 23.9-83.7-5-26.8-11.4-53.9-28.6-65.4-12.9-8.5-35.7-4.5-43.4-2.3-17.9 5.4-37.4 18.5-50.8 34.2-24.5 28.8-33.1 69.8-32.9 98.5 0.2 46.4 17 105.3 45 157.5 27.3 52.5 66.4 99.6 104.6 126zm-97.6-365.8c10.2-12.1 25.5-22.4 38.8-26.4 4.5-1.3 10.1-1.9 14.7-1.9 3.6 0 6.6 0.4 7.8 1.1 9.9 6.5 15.5 36.4 17.9 49.5 8.7 39.8 4.4 47.4-10.7 56.3-4.2 1.4-9.4 4.8-13.3 12.1-9.1 17.4-6.6 50.4 6.2 82.1 3.3 8.1 7.1 16.4 11.6 24.8 4.4 8.4 9.1 16.3 13.9 23.5 19 28.5 44.8 49.1 64.3 51.4 8.2 1 13.9-1.4 17.5-4.2 16.1-7.5 24.3-6.8 52.7 23.2 9.2 9.2 30.7 30.7 30.6 42.5-0.3 3.2-6.9 12.8-13.4 18.1-10.8 8.8-27.9 15.5-43.7 17.2-30.8 3.3-64-10.9-83.1-24.1-35-24.2-71.2-67.9-96.7-117q0-0.1 0-0.2c-26.2-48.7-41.9-103.2-42.1-145.8-0.1-23.2 6.8-58.6 27-82.2z"/><path  d="m724.7 124.7h-33.8v-39.8c0-46.5-37.8-84.4-84.4-84.4h-465.6c-46.5 0-84.3 37.9-84.3 84.4v71.3h-2.9c-27.5 0-49.8 22.4-49.8 49.8 0 27.5 22.3 49.8 49.8 49.8h2.9v82.4h-5.9c-27.5 0-49.8 22.3-49.8 49.8 0 27.4 22.3 49.8 49.8 49.8h5.9v87.1h-6c-27.5 0-49.8 22.3-49.8 49.8 0 27.4 22.3 49.7 49.8 49.7h6v66.7c0 46.5 37.8 84.4 84.3 84.4h465.6c46.6 0 84.4-37.9 84.4-84.4v-24.5h33.8c24.5 0 44.5-20 44.5-44.5v-453c0-24.5-20-44.4-44.5-44.4zm-33.8 226.9h53.3v79.5h-53.3zm0-25v-73.6h53.3v73.6zm0 129.5h53.3v79.4h-53.3zm33.8-306.4c10.7 0 19.5 8.7 19.5 19.5v58.8h-53.3v-78.3zm-583.8-124.2h465.6c28.5 0 52.3 20.2 58 46.9h-581.6c5.8-26.7 29.6-46.9 58-46.9zm-112.1 180.5c0-13.6 11.2-24.7 24.8-24.7h36.8c13.7 0 24.8 11.1 24.8 24.7 0 13.7-11.1 24.8-24.8 24.8h-36.8c-13.6 0-24.8-11.1-24.8-24.8zm-2.9 182c0-13.7 11.1-24.8 24.8-24.8h36.7c13.7 0 24.8 11.1 24.8 24.8 0 13.7-11.1 24.8-24.8 24.8h-36.7c-13.7 0-24.8-11.1-24.8-24.8zm-0.1 186.7c0-13.7 11.1-24.8 24.8-24.8h36.7c13.7 0 24.8 11.1 24.8 24.8 0 13.6-11.1 24.7-24.8 24.7h-36.7c-13.7 0-24.8-11.1-24.8-24.7zm61.5 49.7c27.5 0 49.8-22.3 49.8-49.7 0-27.5-22.3-49.8-49.8-49.8h-5.8v-87.1h5.9c27.5 0 49.8-22.3 49.8-49.8 0-27.4-22.3-49.8-49.8-49.8h-5.9v-82.4h8.9c27.4 0 49.8-22.3 49.8-49.8 0-27.4-22.4-49.7-49.8-49.7h-8.9v-58.9h584.4v39.8 516.9 24.5h-584.4v-54.1c0 0 5.8 0 5.8 0zm519.2 126h-465.6c-28.4 0-52.2-20.1-58-46.9h581.6c-5.7 26.8-29.5 46.9-58 46.9zm118.2-108.9h-33.8v-81.1h53.3v61.6c0 10.8-8.8 19.5-19.5 19.5z"/></g></svg>