<svg version="1.2" xmlns="http://www.w3.org/2000/svg" viewBox="0 0 1134 68" width="1134" height="68"><style>.a{fill:#ffffff}</style><path class="a" d="m23.6 4.1c-12.7 0-22.7 9.5-22.7 23.2 0 13.6 10 23.1 22.7 23.1 12.2 0 21.1-9.1 22.1-20.3v-4.6h-24.3v4.8h18.1c-1 9-7 14.7-15.9 14.7-9.6 0-16.7-6.9-16.7-17.7 0-11 7.1-17.9 16.7-17.9 6.3 0 11.3 3.1 13.7 8.4h7.1c-3.4-8.8-11.3-13.7-20.8-13.7zm35.8 26.5c0-8.3 4.3-10.8 10-10.8h1.5v-6.2c-5.6 0-9.5 2.5-11.5 6.5v-5.8h-5.9v35.7h5.9zm16.1 1.4c0 11.1 7.3 18.6 16.8 18.6 6.6 0 11.2-3.4 13.3-7.2v6.6h6v-35.7h-6v6.5c-2.1-3.7-6.6-7.1-13.2-7.1-9.6 0-16.9 7.2-16.9 18.3zm30.1 0.1c0 8.4-5.6 13.3-12.1 13.3-6.4 0-12-5-12-13.4 0-8.4 5.6-13.1 12-13.1 6.5 0 12.1 4.9 12.1 13.2zm21.9-11.2v-6.6h-5.9v52.7h5.9v-23.6c2.2 3.7 6.8 7.2 13.3 7.2 9.5 0 16.8-7.5 16.8-18.6 0-11.1-7.3-18.3-16.8-18.3-6.5 0-11.2 3.4-13.3 7.2zm24.1 11.1c0 8.4-5.5 13.4-12.1 13.4-6.4 0-12-4.9-12-13.3 0-8.3 5.6-13.2 12-13.2 6.6 0 12.1 4.7 12.1 13.1zm13.8 18h5.9v-19.7c0-7.7 4.2-11.5 10.2-11.5 5.9 0 9.9 3.7 9.9 11v20.2h5.8v-21c0-10.3-6.2-15.3-14.2-15.3-5 0-9.4 2-11.7 5.8v-17.7h-5.9zm41.5 0h5.9v-35.7h-5.9zm3.1-41.5c2.1 0 3.8-1.8 3.8-4 0-2.3-1.7-4.1-3.8-4.1-2.3 0-4.1 1.8-4.1 4.1 0 2.2 1.8 4 4.1 4zm10.7 23.6c0 11.3 7.2 18.5 17.3 18.5 8.8 0 14.6-5 16.4-12.1h-6.4c-1.3 4.5-4.8 7.1-10 7.1-6.5 0-11.3-4.7-11.3-13.5 0-8.7 4.8-13.4 11.3-13.4 5.2 0 8.8 2.8 10 7.1h6.4c-1.8-7.5-7.6-12.1-16.4-12.1-10.1 0-17.3 7.2-17.3 18.4zm72.9-27.5h-14.1v45.4h14.1c14.9 0 24-8.5 24-22.6 0-14.1-9.1-22.8-24-22.8zm-8.2 40.5v-35.7h8.2c11.8 0 18 6.9 18 18 0 11.1-6.2 17.7-18 17.7zm55.1-26.4c6.1 0 11.3 3.9 11.2 10.8h-22.4c0.6-6.9 5.4-10.8 11.2-10.8zm16.6 20.3h-6.4c-1.3 3.8-4.7 6.6-10 6.6-6 0-11.1-4-11.5-11.2h28.4c0.1-1.3 0.2-2.3 0.2-3.6 0-9.8-6.8-17.1-17.1-17.1-10.3 0-17.5 7.1-17.5 18.4 0 11.3 7.4 18.5 17.5 18.5 8.9 0 14.6-5.1 16.4-11.6zm34 1.3c-0.2-12.8-20.9-8.1-20.9-16.6 0-2.9 2.6-5 7-5 4.7 0 7.4 2.6 7.7 6.2h5.9c-0.4-6.9-5.6-11.2-13.4-11.2-7.9 0-13.1 4.5-13.1 10 0 13.3 21 8.6 21 16.6 0 2.9-2.5 5.3-7.2 5.3-5 0-8.1-2.6-8.4-6.1h-6.1c0.4 6.5 6.2 11.1 14.6 11.1 7.8 0 12.9-4.4 12.9-10.3zm8.3 9.7h5.9v-35.7h-5.9zm3.1-41.5c2.1 0 3.9-1.8 3.9-4 0-2.3-1.8-4.1-3.9-4.1-2.3 0-4.1 1.8-4.1 4.1 0 2.2 1.8 4 4.1 4zm10.7 23.5c0 11.1 7.3 18.6 16.8 18.6 6.5 0 11.1-3.5 13.3-7.3v7.5c0 7.6-4.8 11.6-11.1 11.6-5.8 0-10-2.9-11.3-7.2h-5.8c1.1 7.6 7.8 12.4 17.1 12.4 10.5 0 17-7 17-16.8v-36.5h-5.9v6.5c-2.1-3.8-6.8-7.1-13.3-7.1-9.5 0-16.8 7.2-16.8 18.3zm30.1 0.1c0 8.4-5.6 13.3-12.1 13.3-6.5 0-12-5-12-13.4 0-8.4 5.5-13.1 12-13.1 6.5 0 12.1 4.9 12.1 13.2zm41.9 17.9h5.9v-21c0-10.3-6.3-15.4-14.6-15.4-4.8 0-9 2.1-11.4 5.8v-5.1h-5.9v35.7h5.9v-19.7c0-7.7 4.2-11.5 10.2-11.5 6 0 9.9 3.7 9.9 11zm30.6-31.3c6.1 0 11.3 3.9 11.3 10.8h-22.5c0.7-6.9 5.5-10.8 11.2-10.8zm16.6 20.3h-6.3c-1.3 3.8-4.7 6.6-10 6.6-6 0-11.1-4-11.6-11.2h28.5c0.1-1.3 0.1-2.3 0.1-3.6 0-9.8-6.7-17.1-17-17.1-10.4 0-17.6 7.1-17.6 18.4 0 11.3 7.5 18.5 17.6 18.5 8.8 0 14.5-5.1 16.3-11.6zm14.4-8.4c0-8.3 4.3-10.8 10-10.8h1.5v-6.1c-5.6 0-9.5 2.4-11.5 6.4v-5.8h-5.9v35.7h5.9zm62.9-16.3c0.3-6-4-10.6-11.2-10.6-7.3 0-11.9 4.3-11.9 10.1 0 3.3 1.1 5.9 3.9 9.1-7.1 2.8-10.7 7.8-10.7 14.1 0 8.4 6.5 13.8 15.9 13.8 6.3 0 11.2-2.2 15.5-6.8l5.9 6h7.7l-10.1-10.2c0.9-1.3 1.7-2.6 2.6-4.1l5.3-9.3h-6.4l-4.4 7.5c-0.4 0.6-0.8 1.2-1.2 1.8l-13.4-13.6c-3.2-3.4-4.7-5.6-4.7-8.3 0-3 2.3-5.2 5.8-5.2 3.1 0 5.6 2 5.5 5.7zm-14 31.4c-5.9 0-10-3.8-10-8.9 0-4.6 2.7-8 8.3-10.1l13.3 13.4c-3.3 3.8-7 5.6-11.6 5.6zm61.1 4.4l6.6-0.1 10.9-36.5 10.5 36.5h6.6l13.1-45.4h-6.4l-9.9 38.4-10.4-38.4h-6.6l-10.9 38.5-9.8-38.5h-6.3zm69.2-31.3c6.1 0 11.3 3.8 11.3 10.8h-22.5c0.7-7 5.5-10.8 11.2-10.8zm16.6 20.2h-6.3c-1.3 3.9-4.7 6.6-10 6.6-6 0-11.1-4-11.6-11.2h28.5c0.1-1.2 0.1-2.3 0.1-3.6 0-9.7-6.7-17-17-17-10.4 0-17.6 7.1-17.6 18.3 0 11.4 7.5 18.5 17.6 18.5 8.8 0 14.5-5 16.3-11.6zm14.4-18v-19.2h-5.9v48.2h5.9v-6.5c2.2 3.9 6.8 7.1 13.3 7.1 9.6 0 16.9-7.5 16.9-18.5 0-11.2-7.3-18.3-16.9-18.3-6.3 0-11 3.2-13.3 7.2zm24.2 11.1c0 8.4-5.6 13.3-12.1 13.3-6.4 0-12.1-4.9-12.1-13.3 0-8.2 5.7-13.2 12.1-13.2 6.5 0 12.1 4.8 12.1 13.2zm45.2-27.5h-14.1v45.4h14.1c14.8 0 24-8.5 24-22.6 0-14-9.2-22.8-24-22.8zm-8.2 40.6v-35.7h8.2c11.8 0 17.9 6.9 17.9 17.9 0 11.1-6.1 17.8-17.9 17.8zm55-26.4c6.1 0 11.3 3.8 11.2 10.8h-22.4c0.6-7 5.4-10.8 11.2-10.8zm16.6 20.2h-6.3c-1.3 3.9-4.7 6.6-10 6.6-6.1 0-11.1-4-11.6-11.2h28.4c0.2-1.2 0.2-2.3 0.2-3.6 0-9.7-6.7-17-17-17-10.4 0-17.6 7.1-17.6 18.3 0 11.4 7.5 18.5 17.6 18.5 8.8 0 14.5-5 16.3-11.6zm4.3-24.7l13.9 35.7h6.9l14-35.7h-6.3l-11.1 30.3-11-30.3zm55.7 4.5c6.1 0 11.2 3.8 11.2 10.8h-22.5c0.7-7 5.5-10.8 11.3-10.8zm16.6 20.2h-6.4c-1.3 3.9-4.7 6.6-10 6.6-6 0-11.1-4-11.5-11.2h28.4c0.1-1.2 0.2-2.3 0.2-3.6 0-9.7-6.8-17-17.1-17-10.4 0-17.6 7.1-17.6 18.3 0 11.4 7.5 18.5 17.6 18.5 8.8 0 14.6-5 16.4-11.6zm8.5 11h5.9v-48.2h-5.9zm49.6-17.9c0-11.2-7.8-18.4-17.9-18.4-10.1 0-18 7.2-18 18.4 0 11.4 7.7 18.5 17.7 18.5 10.1 0 18.2-7.1 18.2-18.5zm-29.9 0c0-9 5.7-13.2 11.9-13.2 6.1 0 12 4.2 12 13.2 0 9.1-6 13.3-12.2 13.3-6.1 0-11.7-4.2-11.7-13.3zm43.6-11.2v-6.6h-5.9v52.7h5.9v-23.5c2.2 3.6 6.8 7.1 13.3 7.1 9.6 0 16.9-7.5 16.9-18.5 0-11.2-7.3-18.4-16.9-18.4-6.5 0-11.1 3.4-13.3 7.2zm24.1 11.2c0 8.4-5.5 13.3-12 13.3-6.4 0-12.1-4.9-12.1-13.3 0-8.3 5.7-13.2 12.1-13.2 6.5 0 12 4.8 12 13.2zm29-13.3c6.1 0 11.3 3.8 11.2 10.8h-22.4c0.6-7 5.4-10.8 11.2-10.8zm16.6 20.2h-6.4c-1.3 3.9-4.7 6.6-10 6.6-6 0-11.1-4-11.5-11.2h28.4c0.1-1.2 0.2-2.3 0.2-3.6 0-9.8-6.8-17.1-17.1-17.1-10.3 0-17.5 7.2-17.5 18.4 0 11.4 7.4 18.5 17.5 18.5 8.9 0 14.6-5.1 16.4-11.6zm14.4-8.4c0-8.3 4.3-10.8 9.9-10.8h1.6v-6.1c-5.7 0-9.5 2.5-11.5 6.4v-5.8h-5.9v35.7h5.9z"/></svg>