<svg version="1.2" xmlns="http://www.w3.org/2000/svg" viewBox="0 0 1500 103" width="1500" height="103"><style>.a{fill:#ffffff}</style><path class="a" d="m69.9 34.3q0 2.5-0.1 6.4 0 3.8-0.1 9-0.1 5.3-0.1 9.1 0 3.8 0 6.3 0 13.9-2.1 20.7-2.5 7.9-9.3 11.2-6.7 3.3-20.8 3.3-19.4 0-25.8-7.4-5.7-6.7-5.7-26.9v-31.4q0-20.1 6-27 6.5-7.3 26.2-7.3 19 0 25.7 7.8 6.1 6.9 6.1 26.2zm-17.2-3.7q0-8.5-3.2-11.3-3-2.4-12-2.4-6.3 0-9.2 1.2-4.5 1.7-5.3 6.7-0.2 1.9-0.2 4.7 0 0.7 0 1.9 0 1.1 0 2.7 0.1 1.5 0.1 2.8 0 1.3 0 2.3 0 2.6 0 6.3 0 3.8-0.1 8.9v15.1q0 8.7 3.1 11.3 2.9 2.5 11.9 2.5 8.7 0 11.6-2.7 2.9-2.7 2.9-11.4 0-3.2 0-7.9 0.1-4.9 0.2-11.4 0.2-12.9 0.2-19.3zm14.8 3.7q0 2.5-0.1 6.4 0 3.8-0.1 9-0.1 5.3-0.1 9.1 0 3.8 0 6.3 0 13.9-2.1 20.7-2.5 7.9-9.3 11.2-6.7 3.3-20.8 3.3-19.4 0-25.8-7.4-5.7-6.7-5.7-26.9v-31.4q0-20.1 6-27 6.5-7.3 26.2-7.3 19 0 25.7 7.8 6.1 6.9 6.1 26.2zm-17.2-3.7q0-8.5-3.2-11.3-3.1-2.4-12-2.4-6.3 0-9.2 1.2-4.5 1.7-5.3 6.7-0.2 1.9-0.2 4.7 0 0.7 0 1.9 0 1.1 0 2.7 0.1 1.5 0.1 2.8 0 1.3 0 2.3 0 2.6 0 6.3 0 3.8-0.1 8.9v15.1q0 8.7 3.1 11.3 2.9 2.5 11.9 2.5 8.6 0 11.6-2.7 2.9-2.7 2.9-11.4 0-3.2 0-7.9 0.1-4.9 0.2-11.4 0.2-12.9 0.2-19.3zm142.2 61.1q0.1 3.8-2.3 6.3-2.5 2.4-6.3 2.4-3.9 0-6.2-2.3-2.2-2.3-2.2-6.2l-0.3-30.6q0-2.5-3.2-2.5-0.8 0-2.1 0.1-1.1 0.1-2.8 0.3-3.2 0.2-4.8 0.2-18 0-24.9-5.6-7.6-6.4-7.6-24.3 0-17.1 7.5-23.3 6.7-5.6 24.4-5.6 17.2 0 23.6 5.1 7.1 5.8 6.9 22.5-0.2 13.4-0.1 29.1 0.1 15.8 0.4 34.4zm-17.4-54.2v-7.3q0-8.6-2.3-10.9-2.4-2.4-11.1-2.4-9.3 0-12 1.8-3.2 2.4-3.2 11.2 0 8.2 3 10.5 2.6 2 11.1 2h3.4q1.8 0 3.7-0.1 2-0.2 4.3-0.5 2-0.3 2.6-1 0.5-0.9 0.5-3.3zm15 54.2q0.1 3.8-2.3 6.3-2.5 2.4-6.3 2.4-3.9 0-6.2-2.3-2.2-2.3-2.2-6.2l-0.3-30.6q0-2.5-3.2-2.5-0.8 0-2.1 0.1-1.1 0.1-2.8 0.3-3.2 0.2-4.8 0.2-18 0-24.9-5.6-7.6-6.4-7.6-24.3 0-17.1 7.5-23.3 6.7-5.6 24.3-5.6 17.3 0 23.7 5.1 7.1 5.8 6.9 22.5-0.2 13.4-0.1 29.1 0.1 15.8 0.4 34.4zm-17.4-54.2v-7.3q0-8.6-2.3-10.9-2.4-2.4-11.1-2.4-9.3 0-12 1.8-3.2 2.4-3.2 11.2 0 8.2 3 10.5 2.6 2 11.1 2h3.4q1.8 0 3.7-0.1 2-0.2 4.2-0.5 2.1-0.3 2.7-1 0.5-0.9 0.5-3.3zm143.6 53.4q0 1.7-0.6 3.2-0.6 1.5-1.6 2.7-1 1.1-2.3 1.8-1.4 0.8-3 0.8l-48.5 0.1q-3.7 0-5.8-2.3-2.1-2.4-2.1-6.1 0-8.6 7.4-9 3.9 0.2 11.9 0.2 3.4-0.1 3.7-1.9 0.6-4.8 0.9-11.7 0.4-7 0.4-16.1 0-9.2-1.1-26.9-0.1-2.8-3.7-5.4-3.3-2.6-3.3-6.7 0-5.3 5.2-9.5 4.7-3.9 10.1-3.9 9.4 0 9.4 7.7 0 1 0 3.2 0 2.1-0.1 5.6-0.1 2.7-0.1 4.9 0 2.2 0 4v54.8q0 2.6 6.8 2.4 2.2 0 5.4-0.3 1.6-0.2 2.5-0.3 1 0 1.1 0 2.7 0 5 3 2.4 3.1 2.4 5.7zm-2.4 0q0 1.7-0.6 3.2-0.6 1.5-1.6 2.7-1 1.1-2.3 1.8-1.4 0.8-3.1 0.8l-48.4 0.1q-3.7 0-5.8-2.3-2.1-2.4-2.1-6.1 0-8.6 7.4-9 3.9 0.2 11.9 0.2 3.4-0.1 3.7-1.9 0.6-4.8 0.9-11.7 0.4-7 0.4-16.1 0-9.2-1.1-26.9-0.1-2.8-3.7-5.4-3.3-2.6-3.3-6.7 0-5.3 5.2-9.5 4.7-3.9 10.1-3.9 9.4 0 9.4 7.7 0 1 0 3.2 0 2.1-0.1 5.6-0.1 2.7-0.1 4.9 0 2.2 0 4v54.8q0 2.6 6.8 2.4 2.2 0 5.4-0.3 1.6-0.2 2.5-0.3 0.9 0 1.1 0 2.7 0 5 3 2.4 3.1 2.4 5.7zm125-19.7q0 16.4-8 23-7.2 6.2-23.8 6.2-29.2 0-29.7-27.9l-1.2-63.5q-0.1-3.9 2.4-6.3 2.4-2.4 6.3-2.4 3.9 0 6.1 2.4 2.3 2.3 2.3 6.2l0.5 30.6q0 2.7 2.6 2.7 0.8 0 1.8-0.1 1.2-0.1 2.7-0.3 1.5-0.2 2.6-0.3 1.2-0.2 1.9-0.2 18.3 0 25.3 5.6 8.2 6.5 8.2 24.3zm-16.8-0.6q0-3.6-0.6-6-0.6-2.6-2.2-4.1-1.5-1.5-3.9-2.2-2.4-0.7-5.9-0.7-1.3 0-12 0.6-1.4 0.1-2.3 1.5-1 1.4-1 3v7.8q0.2 5.1 1.2 7.5 2.3 5.6 12.1 5.6 8.6 0 11.4-2.1 3.2-2.6 3.2-10.9zm14.4 0.6q0 16.4-8 23-7.2 6.2-23.8 6.2-29.2 0-29.7-27.9l-1.2-63.5q-0.1-3.9 2.4-6.3 2.4-2.4 6.2-2.4 4 0 6.2 2.4 2.3 2.3 2.3 6.2l0.5 30.6q0 2.7 2.6 2.7 0.8 0 1.8-0.1 1.2-0.1 2.7-0.3 1.5-0.2 2.6-0.3 1.2-0.2 1.9-0.2 18.3 0 25.3 5.6 8.2 6.5 8.2 24.3zm-16.8-0.6q0-3.6-0.6-6-0.7-2.6-2.2-4.1-1.5-1.5-3.9-2.2-2.4-0.7-5.9-0.7-1.3 0-12 0.6-1.4 0.1-2.4 1.5-0.9 1.4-0.9 3v7.8q0.2 5.1 1.2 7.5 2.3 5.6 12.1 5.6 8.6 0 11.4-2.1 3.2-2.6 3.2-10.9zm242.9-19q0 5.7-8.1 6.7l-5.3 0.6q-2.4 0.5-2.5 1.4-0.4 1.7-0.4 9.3 0 1.8 0 4.6 0.1 2.7 0.2 6.5 0.1 3.7 0.1 6.4 0.1 2.7 0.1 4.6 0 3.6-2.2 6.1-2.1 2.5-5.6 2.5-1.6 0-3.2-0.6-1.6-0.6-2.8-1.6-1.2-1.1-1.9-2.6-0.7-1.4-0.7-3.1 0-1.4 0.1-3.4 0.2-2.1 0.3-4.9 0.2-2.9 0.3-5 0.2-2.1 0.2-3.4 0-11.9-0.4-14.1-0.1-0.3-0.1-0.8-0.1-0.4-0.3-1-0.4-0.4-3.1-0.9-5.3-1-15.1-1-0.7 0-2.2 0.4-1.6 0.2-2.4 0.2-7.9 0-8.3-10.5-0.5-9.7-0.7-19.2-0.2-9.6-0.2-19.3 0-3.9 2-6.5 2.1-2.7 5.9-2.7 5.9 0 7.6 4.5 1 2.6 1 9.1 0 2.1-0.1 4.9-0.1 2.8-0.3 6.7-0.2 3.8-0.3 6.7 0 2.8 0 4.8 0 3.2 1 4.4 1.1 1.2 4 1.4 0.5 0.1 1.6 0.1 1.1 0 2.8 0 6.3 0 7.3-1.3 0.7-0.6 0.7-5.1 0-4.8-0.6-13.8-0.2-4.5-0.3-7.9-0.1-3.5-0.1-5.9 0-8.6 8.3-8.6 4.6 0 6.3 2.8 1.5 2.3 1.5 7.1 0 4.2-0.3 12.3-0.1 4-0.2 7 0 3 0 5.1 0 8.5 3.2 8.5 2 0 3.7-0.6 1.6-0.6 2.6-0.6 3.4 0 5.3 3.3 1.6 2.7 1.6 6.4zm-2.4 0q0 5.7-8.1 6.7l-5.3 0.6q-2.4 0.5-2.5 1.4-0.4 1.7-0.4 9.3 0 1.8 0 4.6 0.1 2.7 0.2 6.5 0.1 3.7 0.1 6.4 0.1 2.7 0.1 4.6 0 3.6-2.2 6.1-2.1 2.5-5.6 2.5-1.6 0-3.2-0.6-1.6-0.6-2.8-1.6-1.2-1.1-1.9-2.6-0.7-1.4-0.7-3.1 0-1.4 0.1-3.4 0.2-2.1 0.3-4.9 0.2-2.9 0.3-5 0.2-2.1 0.2-3.4 0-11.9-0.4-14.1-0.1-0.3-0.1-0.8-0.1-0.4-0.3-1-0.4-0.4-3.1-0.9-5.3-1-15.1-1-0.7 0-2.2 0.4-1.6 0.2-2.4 0.2-7.9 0-8.3-10.5-0.5-9.7-0.7-19.2-0.2-9.6-0.2-19.3 0-3.9 2-6.5 2.1-2.7 5.9-2.7 5.9 0 7.6 4.5 1 2.6 1 9.1 0 2.1-0.1 4.9-0.1 2.8-0.3 6.7-0.2 3.8-0.3 6.7 0 2.8 0 4.8 0 3.2 1 4.4 1.1 1.2 4 1.4 0.5 0.1 1.6 0.1 1.1 0 2.8 0 6.3 0 7.3-1.3 0.7-0.6 0.7-5.1 0-4.8-0.6-13.8-0.2-4.5-0.3-7.9-0.1-3.5-0.1-5.9 0-8.6 8.3-8.6 4.6 0 6.3 2.8 1.5 2.3 1.5 7.1 0 4.2-0.3 12.3-0.1 4-0.2 7 0 3 0 5.1 0 8.5 3.2 8.5 2 0 3.7-0.6 1.6-0.6 2.6-0.6 3.4 0 5.3 3.3 1.6 2.7 1.6 6.4zm124.2-37.2l-0.4 77q-0.1 3.9-2.4 6.4-2.3 2.5-6.1 2.5-8.9 0-8.7-8.8 0.4-35-1.1-68.4-0.3-5.1-6-5l-29.6 0.1q-3.8 0.1-6.1-2.1-2.3-2.3-2.3-6.3 0-3.5 2.4-5.7 2.3-2.4 5.9-2.6 18.7-0.8 38 0.3 9 0.3 12.2 2.3 4.4 2.7 4.2 10.3zm-2.4 0l-0.5 77q0 3.9-2.3 6.4-2.3 2.5-6.1 2.5-8.9 0-8.7-8.8 0.4-35-1.1-68.4-0.3-5.1-6-5l-29.6 0.1q-3.8 0.1-6.1-2.1-2.3-2.3-2.3-6.3 0-3.5 2.4-5.7 2.3-2.4 5.9-2.6 18.7-0.8 38 0.3 9 0.3 12.2 2.3 4.4 2.7 4.2 10.3zm126.4 77.9q0 3.6-2.3 5.8-2.3 2.1-5.9 2.1-0.5 0-1.3-0.1-0.8-0.2-1.9-0.4-2.3-0.4-3.1-0.4h-39.1q-4.8 0-7.1-2-2.1-2.1-2.4-6.7-0.5-8.8-0.7-13.8-0.3-5.1-0.3-6.6 0-9.1 2.4-13.9 3-5.8 10.9-8.3 3.1-0.9 7.6-1.7 4.5-1 10.6-1.8 15.5-2.1 15.5-13.5 0-9.8-4.5-12.5-3-1.7-14-1.7-6.7 0-11.2 1.6-6.2 2.2-8.2 2.2-3.6 0-5.5-3.1-1.5-2.6-1.5-6.1 0-11.1 28.4-11.1 17.6 0 24.8 5.3 8.7 6.5 8.7 23.5 0 25-22.7 29-2.4 0.2-4.9 0.5-2.3 0.3-4.7 0.5-6.4 0.8-9.8 2.6-4.5 2.7-4.5 7.7 0 11.7 1.7 12.6 1 0.5 3.7 0.6 2.8 0.2 5.5 0.3 2.9 0.1 5.7 0.1 11.5 0 14.1-0.3 0.4-0.1 1.3-0.2 0.9-0.2 2.4-0.5 1-0.2 2-0.3 0.9-0.1 1.6-0.1 4.1 0 6.6 3.4 2.1 3.1 2.1 7.3zm-2.4 0q0 3.6-2.3 5.8-2.3 2.1-5.9 2.1-0.5 0-1.3-0.1-0.8-0.2-1.9-0.4-2.3-0.4-3.1-0.4h-39.1q-4.8 0-7.1-2-2.1-2.1-2.4-6.7-0.5-8.8-0.7-13.8-0.3-5.1-0.3-6.6 0-9.1 2.4-13.9 3-5.8 10.9-8.3 3.1-0.9 7.6-1.7 4.5-1 10.6-1.8 15.5-2.1 15.5-13.5 0-9.8-4.5-12.5-3-1.7-14-1.7-6.7 0-11.2 1.6-6.2 2.2-8.2 2.2-3.6 0-5.5-3.1-1.5-2.6-1.5-6.1 0-11.1 28.4-11.1 17.6 0 24.8 5.3 8.7 6.5 8.7 23.5 0 25-22.7 29-2.4 0.2-4.9 0.5-2.3 0.3-4.7 0.5-6.4 0.8-9.8 2.6-4.5 2.7-4.5 7.7 0 11.7 1.7 12.6 1 0.5 3.7 0.6 2.8 0.2 5.5 0.3 2.9 0.1 5.7 0.1 11.5 0 14.1-0.3 0.4-0.1 1.3-0.2 0.9-0.2 2.3-0.5 1.1-0.2 2.1-0.3 0.9-0.1 1.6-0.1 4.1 0 6.6 3.4 2.1 3.1 2.1 7.3zm224-0.6q0.1 3.8-2.4 6.3-2.4 2.4-6.3 2.4-3.9 0-6.1-2.3-2.2-2.3-2.2-6.2l-0.3-30.6q0-2.5-3.2-2.5-0.8 0-2.1 0.1-1.2 0.1-2.8 0.3-3.2 0.2-4.9 0.2-17.9 0-24.8-5.6-7.7-6.4-7.7-24.3 0-17.1 7.6-23.3 6.6-5.6 24.3-5.6 17.2 0 23.6 5.1 7.1 5.8 6.9 22.5-0.1 13.4 0 29.1 0 15.8 0.4 34.4zm-17.4-54.2v-7.3q0-8.6-2.4-10.9-2.3-2.4-11-2.4-9.4 0-12 1.8-3.2 2.4-3.2 11.2 0 8.2 3 10.5 2.5 2 11.1 2h3.4q1.7 0 3.6-0.1 2-0.2 4.3-0.5 2.1-0.3 2.7-1 0.5-0.9 0.5-3.3zm15 54.2q0.1 3.8-2.4 6.3-2.4 2.4-6.3 2.4-3.9 0-6.2-2.3-2.1-2.3-2.1-6.2l-0.3-30.6q0-2.5-3.2-2.5-0.8 0-2.1 0.1-1.2 0.1-2.8 0.3-3.2 0.2-4.9 0.2-17.9 0-24.8-5.6-7.7-6.4-7.7-24.3 0-17.1 7.6-23.3 6.6-5.6 24.3-5.6 17.2 0 23.6 5.1 7.1 5.8 6.9 22.5-0.1 13.4-0.1 29.1 0.1 15.8 0.5 34.4zm-17.4-54.2v-7.3q0-8.6-2.4-10.9-2.3-2.4-11-2.4-9.4 0-12 1.8-3.2 2.4-3.2 11.2 0 8.2 3 10.5 2.5 2 11.1 2h3.4q1.7 0 3.6-0.1 2-0.2 4.3-0.5 2.1-0.3 2.6-1 0.6-0.9 0.6-3.3zm143.6 32.7q0 13.9-5.6 20.8-4.7 6-14.8 8.1-3.3 0.6-8.7 1-5.3 0.3-12.7 0.3-22.1 0-22.1-10.2 0-3.8 2.4-6.6 2.6-2.7 6.4-2.7 2.1 0 6.5 1.5 4.4 1.6 6.5 1.6 13.4 0 17.2-1.4 7.7-2.6 7.7-12.9 0-5.6-0.8-8.1-1.4-3.9-5.7-3.9-4.9 0-7.7 0.1-2.7 0-3.4 0.1-0.6 0.1-1.8 0.3-1.1 0.1-2.8 0.6-2.7 0.6-4.5 0.6-1.8 0-3.4-0.7-1.6-0.7-2.9-1.9-1.1-1.2-1.9-2.8-0.6-1.6-0.6-3.4 0-6.4 6.6-8.3 2.9-0.7 11.5-0.7 2.1 0 6.1 0.3 4 0.2 6.1 0.2 5.1 0 5.1-11.5 0-8.8-4-11.5-3.1-2-12.4-2-1.8 0-12 0.8-0.7 0.1-1.9 0.3-1.2 0.2-2.9 0.7-3 0.8-5.2 0.8-3.4 0-5.6-2.4-2.1-2.3-2.1-5.7 0-7.4 11.1-9.8 5.9-1.3 16.8-1.3 18.9 0 25.8 4.2 9.7 5.9 9.7 23.6 0 14.1-5.9 20.9-0.1 0.4-0.1 0.5 0 0.2 0.4 0.7 3.5 3.2 4.8 9.3 0.8 3.8 0.8 10.5zm-2.4 0q0 13.9-5.6 20.8-4.7 6-14.8 8.1-3.3 0.6-8.7 1-5.3 0.3-12.7 0.3-22.1 0-22.1-10.2 0-3.8 2.4-6.6 2.6-2.7 6.4-2.7 2.1 0 6.5 1.5 4.4 1.6 6.5 1.6 13.4 0 17.2-1.4 7.7-2.6 7.7-12.9 0-5.6-0.8-8.1-1.4-3.9-5.7-3.9-4.9 0-7.7 0.1-2.7 0-3.4 0.1-0.6 0.1-1.8 0.3-1.1 0.1-2.8 0.6-2.7 0.6-4.5 0.6-1.8 0-3.4-0.7-1.6-0.7-2.9-1.9-1.1-1.2-1.9-2.8-0.6-1.6-0.6-3.4 0-6.4 6.6-8.3 2.9-0.7 11.5-0.7 2.1 0 6.1 0.3 4 0.2 6.1 0.2 5.1 0 5.1-11.5 0-8.8-4-11.5-3.1-2-12.5-2-1.7 0-11.9 0.8-0.7 0.1-1.9 0.3-1.2 0.2-2.9 0.7-3 0.8-5.2 0.8-3.4 0-5.6-2.4-2.1-2.3-2.1-5.7 0-7.4 11.1-9.8 5.9-1.3 16.8-1.3 18.9 0 25.8 4.2 9.7 5.9 9.7 23.6 0 14.1-5.9 20.9-0.1 0.4-0.1 0.5 0 0.2 0.4 0.7 3.5 3.2 4.8 9.3 0.8 3.8 0.8 10.5zm125 0.1q0 16.2-6.6 23-6.8 7.2-22.6 7.2-3.1 0-7.6-0.3-0.1 0-1.9 0-1.8-0.1-5.6-0.2-8-0.1-12.1-1.8-6.3-2.6-6.3-9.6 0-3.3 2.1-5.8 2.3-2.5 5.7-2.5 2.1 0 9.7 1.9 7.9 1.9 11.2 1.9 10.7 0 13.8-2.9 3.1-2.8 3.1-13.5 0-3.2-2.1-5.7-2.1-2.5-5.3-2.6-6.2-0.4-10.1-0.5-3.8-0.2-5.5-0.2-1.1 0-2.6 0.2-1.4 0.1-3.2 0.5-1.8 0.3-3.2 0.5-1.3 0.1-2.2 0.1-6.4 0-9-3.4-2.4-2.9-2.4-9.5 0-2.9 0.1-7.4 0.1-4.6 0.3-10.6 0.2-6.1 0.3-10.6 0.1-4.6 0.1-7.6 0-4 2-6.7 2.2-3.1 6.1-3.1 1.2 0 2.8 0.2 1.7 0.1 4 0.5 2.4 0.3 4.1 0.5 1.8 0.1 2.9 0.1 4.1 0 21.4-1.6 0.4-0.1 1.5-0.2 1.1-0.2 2.7-0.6 1.3-0.2 2.4-0.2 1.1-0.2 1.9-0.2 1.9 0 3.4 0.7 1.6 0.7 2.7 2 1.2 1.2 1.9 2.9 0.7 1.6 0.7 3.4 0 5.7-4.5 7.5-2.4 1.1-8.6 1.1-18.5 0-27.1 1.4-2.7 0.4-2.9 2.7l-0.6 8.1q-0.1 2.6-0.3 4.7-0.1 2-0.1 3.6 0 4.4 1.9 5.4 0.8 0.3 5.9 0.3h8.9q0.7 0 1.8 0 1.1 0 2.5-0.1 1.5-0.1 2.6-0.1 1.1 0 1.8 0 11.7 0 16.5 8.1 3.6 6.3 3.6 19zm-2.4 0q0 16.2-6.6 23-6.8 7.2-22.6 7.2-3.1 0-7.6-0.3-0.1 0-1.9 0-1.8-0.1-5.6-0.2-8-0.1-12.1-1.8-6.4-2.6-6.4-9.6 0-3.3 2.2-5.8 2.3-2.5 5.7-2.5 2.1 0 9.7 1.9 7.9 1.9 11.2 1.9 10.7 0 13.8-2.9 3.1-2.8 3.1-13.5 0-3.2-2.1-5.7-2.1-2.5-5.3-2.6-6.2-0.4-10.1-0.5-3.8-0.2-5.5-0.2-1.1 0-2.6 0.2-1.4 0.1-3.2 0.5-1.8 0.3-3.2 0.5-1.3 0.1-2.2 0.1-6.4 0-9-3.4-2.4-2.9-2.4-9.5 0-2.9 0.1-7.4 0.1-4.6 0.3-10.6 0.2-6.1 0.3-10.6 0.1-4.6 0.1-7.6 0-4 2-6.7 2.2-3.1 6.1-3.1 1.2 0 2.8 0.2 1.7 0.1 4 0.5 2.4 0.3 4.1 0.5 1.7 0.1 2.9 0.1 4.1 0 21.4-1.6 0.4-0.1 1.5-0.2 1.1-0.2 2.7-0.6 1.3-0.2 2.4-0.2 1.1-0.2 1.9-0.2 1.9 0 3.4 0.7 1.6 0.7 2.7 2 1.2 1.2 1.9 2.9 0.7 1.6 0.7 3.4 0 5.7-4.5 7.5-2.4 1.1-8.6 1.1-18.5 0-27.1 1.4-2.7 0.4-2.9 2.7l-0.6 8.1q-0.2 2.6-0.3 4.7-0.1 2-0.1 3.6 0 4.4 1.9 5.4 0.8 0.3 5.9 0.3h8.9q0.7 0 1.8 0 1.1 0 2.5-0.1 1.5-0.1 2.6-0.1 1.1 0 1.8 0 11.7 0 16.5 8.1 3.6 6.3 3.6 19zm125.6 0.9q0 17.8-7.1 23.7-6.5 5.2-24.4 5.2-17.7 0-24.1-5.3-7.1-6.1-7.1-23.6 0-10.6 3-14.1 1.8-2.1 11-7.2-8.7-2.5-11.6-7.8-2.2-4-2.2-14.1 0-16.3 8-22.5 6.8-5.2 23.5-5.2 16.6 0 23.3 5.5 7.5 6.1 7.5 22.6 0 9.9-2.4 13.7-2.4 4-11.2 7.4 9.1 4.1 11.5 7.7 2.3 3.4 2.3 14zm-17.3-44q0-6.6-3.7-8.9-2.9-1.9-9.7-1.9-7.9 0-10.7 2-3.8 2.5-3.8 9.8 0 5 2.3 7.9 2 2.2 6.8 4.4 1.7 0.7 5.5 2.5 1.2-0.7 2.5-1.2 1.4-0.6 2.6-1.1 3.3-1.5 4.9-3 3.3-3 3.3-10.5zm0.3 42.8q0-6.8-13.6-12-3.5 1.4-5.9 2.6-2.3 1.1-3.6 2.1-5.4 3.7-5.4 8.3 0 13 14.3 13 8.4 0 11.3-2.8 2.9-2.7 2.9-11.2zm14.6 1.2q0 17.8-7.1 23.7-6.5 5.2-24.4 5.2-17.7 0-24.1-5.3-7.1-6.1-7.1-23.6 0-10.6 3-14.1 1.8-2.1 11-7.2-8.7-2.5-11.6-7.8-2.2-4-2.2-14.1 0-16.3 8-22.5 6.8-5.2 23.5-5.2 16.6 0 23.3 5.5 7.5 6.1 7.5 22.6 0 9.9-2.4 13.7-2.4 4-11.2 7.4 9.1 4.1 11.5 7.7 2.3 3.4 2.3 14zm-17.3-44q0-6.6-3.7-8.9-2.9-1.9-9.7-1.9-7.9 0-10.7 2-3.8 2.5-3.8 9.8 0 5 2.3 7.9 2 2.2 6.8 4.4 1.7 0.7 5.5 2.5 1.2-0.7 2.5-1.2 1.4-0.6 2.6-1.1 3.3-1.5 4.9-3 3.3-3 3.3-10.5zm0.3 42.8q0-6.8-13.6-12-3.5 1.4-5.9 2.6-2.4 1.1-3.6 2.1-5.4 3.7-5.4 8.3 0 13 14.3 13 8.4 0 11.3-2.8 2.9-2.7 2.9-11.2z"/></svg>