<svg version="1.2" xmlns="http://www.w3.org/2000/svg" viewBox="0 0 1152 136" width="1152" height="136"><style>.a{fill:#ffffff}</style><path class="a" d="m2.5 123h4.1v-14.1h11v-3.4h-11v-10.5h13.6v-3.4h-17.7zm26.7-13.4c0-5.7 3-7.4 6.9-7.4h1.1v-4.3c-3.9 0-6.6 1.7-8 4.5v-4h-4.1v24.6h4.1zm23.2-8.2c4.2 0 7.8 2.7 7.8 7.5h-15.6c0.5-4.8 3.8-7.5 7.8-7.5zm11.5 14h-4.4c-0.9 2.7-3.2 4.6-6.9 4.6-4.2 0-7.7-2.8-8-7.8h19.7c0.1-0.8 0.1-1.5 0.1-2.4 0-6.8-4.6-11.8-11.8-11.8-7.2 0-12.2 4.9-12.2 12.7 0 7.8 5.2 12.8 12.2 12.8 6.1 0 10.1-3.6 11.3-8.1zm16.4-14c4.2 0 7.8 2.7 7.8 7.5h-15.6c0.5-4.8 3.8-7.5 7.8-7.5zm11.5 14h-4.4c-0.9 2.7-3.2 4.6-6.9 4.6-4.2 0-7.7-2.8-8-7.8h19.7c0.1-0.8 0.1-1.5 0.1-2.4 0-6.8-4.6-11.8-11.8-11.8-7.2 0-12.2 4.9-12.2 12.7 0 7.8 5.2 12.8 12.2 12.8 6.1 0 10.1-3.6 11.3-8.1zm5.9 7.6h4.1v-33.3h-4.1zm9.6-12.4c0 7.7 5.1 12.9 11.6 12.9 4.6 0 7.8-2.4 9.3-5v4.5h4.1v-24.6h-4.1v4.5c-1.5-2.6-4.6-4.9-9.2-4.9-6.6 0-11.7 4.9-11.7 12.6zm20.9 0.1c0 5.8-3.9 9.2-8.4 9.2-4.5 0-8.3-3.5-8.3-9.3 0-5.8 3.8-9.1 8.3-9.1 4.5 0 8.4 3.5 8.4 9.2zm29.1 12.3h4v-14.5c0-7.1-4.4-10.6-10.1-10.6-3.3 0-6.3 1.4-7.9 4v-3.5h-4.1v24.6h4.1v-13.6c0-5.3 2.9-7.9 7.1-7.9 4.1 0 6.9 2.6 6.9 7.6zm9.2-12.4c0 7.8 5 12.8 12 12.8 6.1 0 10.1-3.4 11.4-8.3h-4.4c-0.9 3.1-3.3 4.8-7 4.8-4.5 0-7.8-3.2-7.8-9.3 0-6 3.3-9.2 7.8-9.2 3.7 0 6.1 1.9 7 4.9h4.4c-1.3-5.2-5.3-8.4-11.4-8.4-7 0-12 5-12 12.7zm39.3-9.2c4.3 0 7.9 2.7 7.8 7.5h-15.6c0.5-4.8 3.8-7.5 7.8-7.5zm11.5 14h-4.4c-0.9 2.6-3.2 4.5-6.9 4.5-4.2 0-7.7-2.7-8-7.7h19.7c0.1-0.9 0.1-1.6 0.1-2.5 0-6.7-4.6-11.8-11.8-11.8-7.2 0-12.2 4.9-12.2 12.7 0 7.9 5.2 12.8 12.2 12.8 6.1 0 10.1-3.5 11.3-8zm32.2-24.1c-8.8 0-15.8 6.6-15.8 16 0 9.4 7 16 15.8 16 8.5 0 14.6-6.3 15.4-14.1v-3.1h-16.9v3.3h12.5c-0.6 6.2-4.9 10.2-11 10.2-6.6 0-11.6-4.8-11.6-12.3 0-7.6 5-12.3 11.6-12.3 4.4 0 7.8 2.1 9.5 5.7h4.9c-2.3-6-7.8-9.4-14.4-9.4zm24.9 18.3c0-5.7 2.9-7.5 6.8-7.5h1.1v-4.2c-3.9 0-6.5 1.7-7.9 4.4v-4h-4.1v24.7h4.1zm11.1 1c0 7.6 5.1 12.8 11.7 12.8 4.5 0 7.7-2.3 9.2-5v4.6h4.1v-24.7h-4.1v4.5c-1.4-2.5-4.6-4.9-9.2-4.9-6.6 0-11.7 5-11.7 12.7zm20.9 0c0 5.8-3.9 9.2-8.4 9.2-4.5 0-8.3-3.4-8.3-9.2 0-5.8 3.8-9.1 8.3-9.1 4.5 0 8.4 3.4 8.4 9.1zm15.2-7.7v-4.6h-4.1v36.4h4.1v-16.2c1.5 2.5 4.7 4.9 9.2 4.9 6.6 0 11.7-5.2 11.7-12.8 0-7.7-5.1-12.7-11.7-12.7-4.5 0-7.8 2.4-9.2 5zm16.7 7.7c0 5.8-3.8 9.2-8.4 9.2-4.4 0-8.3-3.4-8.3-9.2 0-5.7 3.9-9.1 8.3-9.1 4.6 0 8.4 3.3 8.4 9.1zm9.6 12.4h4.1v-13.6c0-5.3 2.9-8 7-8 4.2 0 6.9 2.6 6.9 7.7v13.9h4.1v-14.5c0-7.1-4.4-10.6-9.9-10.6-3.4 0-6.5 1.4-8.1 4v-12.2h-4.1zm28.8 0h4.1v-24.7h-4.1zm2.1-28.6c1.5 0 2.7-1.2 2.7-2.8 0-1.6-1.2-2.8-2.7-2.8-1.6 0-2.8 1.2-2.8 2.8 0 1.6 1.2 2.8 2.8 2.8zm7.4 16.3c0 7.8 5 12.8 12 12.8 6.2 0 10.2-3.5 11.4-8.4h-4.4c-0.9 3.1-3.3 4.9-7 4.9-4.5 0-7.8-3.2-7.8-9.3 0-6.1 3.3-9.3 7.8-9.3 3.7 0 6.2 1.9 7 4.9h4.4c-1.2-5.2-5.2-8.3-11.4-8.3-7 0-12 4.9-12 12.7zm50.7-19h-9.8v31.3h9.8c10.3 0 16.6-5.8 16.6-15.6 0-9.7-6.3-15.7-16.6-15.7zm-5.7 28v-24.7h5.7c8.1 0 12.4 4.8 12.4 12.4 0 7.7-4.3 12.3-12.4 12.3zm38.2-18.3c4.2 0 7.8 2.7 7.7 7.5h-15.5c0.4-4.8 3.8-7.5 7.8-7.5zm11.5 14h-4.4c-0.9 2.7-3.3 4.6-7 4.6-4.1 0-7.7-2.8-8-7.8h19.7c0.1-0.8 0.2-1.5 0.2-2.4 0-6.8-4.7-11.8-11.9-11.8-7.2 0-12.2 4.9-12.2 12.7 0 7.8 5.2 12.8 12.2 12.8 6.2 0 10.1-3.6 11.4-8.1zm23.6 0.9c-0.2-8.8-14.5-5.6-14.5-11.4 0-2 1.8-3.5 4.8-3.5 3.3 0 5.2 1.8 5.4 4.3h4.1c-0.3-4.8-3.9-7.7-9.3-7.7-5.5 0-9.1 3.1-9.1 6.9 0 9.1 14.6 6 14.6 11.4 0 2.1-1.8 3.7-5 3.7-3.5 0-5.6-1.8-5.8-4.2h-4.3c0.3 4.5 4.3 7.7 10.1 7.7 5.4 0 9-3.1 9-7.2zm5.8 6.7h4.1v-24.6h-4.1zm2.1-28.7c1.5 0 2.7-1.2 2.7-2.8 0-1.5-1.2-2.8-2.7-2.8-1.6 0-2.8 1.3-2.8 2.8 0 1.6 1.2 2.8 2.8 2.8zm7.4 16.3c0 7.6 5.1 12.8 11.7 12.8 4.5 0 7.7-2.4 9.2-5v5.1c0 5.3-3.3 8.1-7.7 8.1-4 0-6.9-2-7.8-5h-4.1c0.8 5.3 5.4 8.5 11.9 8.5 7.3 0 11.8-4.8 11.8-11.6v-25.2h-4.1v4.5c-1.5-2.6-4.7-4.9-9.2-4.9-6.6 0-11.7 5-11.7 12.7zm20.9 0c0 5.8-3.9 9.2-8.4 9.2-4.5 0-8.3-3.4-8.3-9.2 0-5.8 3.8-9.1 8.3-9.1 4.5 0 8.4 3.4 8.4 9.1zm29.1 12.4h4v-14.5c0-7.1-4.3-10.6-10-10.6-3.4 0-6.3 1.4-8 3.9v-3.5h-4v24.7h4v-13.6c0-5.4 2.9-8 7.1-8 4.2 0 6.9 2.6 6.9 7.6zm21.2-21.6c4.3 0 7.9 2.7 7.8 7.5h-15.6c0.5-4.8 3.8-7.5 7.8-7.5zm11.6 14h-4.5c-0.9 2.7-3.2 4.6-6.9 4.6-4.2 0-7.7-2.8-8-7.8h19.7c0.1-0.8 0.2-1.5 0.2-2.4 0-6.8-4.7-11.8-11.9-11.8-7.2 0-12.2 4.9-12.2 12.7 0 7.8 5.2 12.7 12.2 12.7 6.1 0 10.1-3.5 11.4-8zm9.9-5.8c0-5.7 3-7.4 6.9-7.4h1.1v-4.3c-3.9 0-6.6 1.7-8 4.5v-4h-4v24.6h4zm43.6-11.2c0.3-4.2-2.7-7.4-7.7-7.4-5.1 0-8.3 3-8.3 7 0 2.3 0.8 4.1 2.7 6.3-4.9 2-7.4 5.4-7.4 9.7 0 5.9 4.5 9.6 11 9.6 4.4 0 7.8-1.5 10.8-4.7l4.1 4.1h5.4l-7.1-7c0.6-0.9 1.2-1.8 1.8-2.9l3.7-6.3h-4.4l-3.1 5.1c-0.2 0.4-0.5 0.8-0.8 1.2l-9.3-9.4c-2.2-2.3-3.3-3.8-3.3-5.7 0-2 1.6-3.6 4-3.6 2.2 0 3.9 1.4 3.9 4zm-9.8 21.7c-4.1 0-6.9-2.7-6.9-6.2 0-3.1 1.9-5.5 5.8-7l9.2 9.3c-2.3 2.6-4.8 3.9-8.1 3.9zm42.5 3l4.5-0.1 7.6-25.2 7.3 25.2h4.6l9-31.3h-4.4l-6.9 26.5-7.2-26.5h-4.5l-7.6 26.6-6.8-26.6h-4.4zm48.1-21.7c4.2 0 7.8 2.7 7.7 7.5h-15.5c0.4-4.8 3.7-7.5 7.8-7.5zm11.5 14h-4.4c-0.9 2.7-3.3 4.6-7 4.6-4.2 0-7.7-2.8-8-7.8h19.7c0.1-0.8 0.2-1.5 0.2-2.4 0-6.8-4.7-11.8-11.9-11.8-7.2 0-12.2 4.9-12.2 12.7 0 7.8 5.2 12.7 12.2 12.7 6.2 0 10.1-3.5 11.4-8zm10-12.4v-13.3h-4.1v33.3h4.1v-4.5c1.5 2.7 4.7 4.9 9.2 4.9 6.6 0 11.7-5.1 11.7-12.8 0-7.7-5-12.6-11.7-12.6-4.4 0-7.7 2.2-9.2 5zm16.7 7.6c0 5.8-3.8 9.2-8.4 9.2-4.4 0-8.3-3.3-8.3-9.1 0-5.8 3.9-9.2 8.3-9.2 4.6 0 8.4 3.3 8.4 9.1zm31.4-18.9h-9.8v31.3h9.8c10.3 0 16.6-5.9 16.6-15.6 0-9.7-6.3-15.7-16.6-15.7zm-5.7 28v-24.7h5.7c8.2 0 12.4 4.8 12.4 12.4 0 7.7-4.2 12.3-12.4 12.3zm38.2-18.3c4.2 0 7.8 2.7 7.8 7.5h-15.6c0.4-4.8 3.8-7.5 7.8-7.5zm11.5 14h-4.4c-0.9 2.7-3.3 4.6-6.9 4.6-4.2 0-7.7-2.8-8.1-7.8h19.8c0-0.8 0.1-1.5 0.1-2.4 0-6.8-4.7-11.8-11.8-11.8-7.2 0-12.2 4.9-12.2 12.7 0 7.8 5.1 12.7 12.2 12.7 6.1 0 10-3.5 11.3-8zm3-17l9.6 24.6h4.8l9.7-24.6h-4.4l-7.6 20.9-7.7-20.9zm38.6 3c4.3 0 7.9 2.7 7.8 7.5h-15.6c0.5-4.8 3.8-7.5 7.8-7.5zm11.6 14h-4.5c-0.9 2.7-3.2 4.6-6.9 4.6-4.2 0-7.7-2.8-8-7.8h19.7c0.1-0.8 0.1-1.5 0.1-2.4 0-6.8-4.6-11.8-11.8-11.8-7.2 0-12.2 4.9-12.2 12.7 0 7.8 5.2 12.7 12.2 12.7 6.1 0 10.1-3.5 11.4-8zm5.8 7.6h4.1v-33.3h-4.1zm34.5-12.3c0-7.8-5.4-12.7-12.4-12.7-7 0-12.5 4.9-12.5 12.7 0 7.8 5.3 12.7 12.3 12.7 7 0 12.6-4.9 12.6-12.7zm-20.7 0c0-6.2 3.9-9.2 8.2-9.2 4.2 0 8.3 3 8.3 9.2 0 6.2-4.2 9.1-8.4 9.1-4.3 0-8.1-2.9-8.1-9.1zm30.2-7.8v-4.5h-4.1v36.3h4.1v-16.2c1.5 2.5 4.7 4.9 9.2 4.9 6.7 0 11.7-5.1 11.7-12.8 0-7.7-5-12.6-11.7-12.6-4.5 0-7.7 2.3-9.2 4.9zm16.8 7.7c0 5.8-3.9 9.2-8.4 9.2-4.5 0-8.4-3.3-8.4-9.1 0-5.8 3.9-9.2 8.4-9.2 4.5 0 8.4 3.3 8.4 9.1zm20-9.2c4.3 0 7.9 2.7 7.8 7.5h-15.6c0.5-4.8 3.8-7.5 7.8-7.5zm11.5 14h-4.4c-0.9 2.7-3.2 4.6-6.9 4.6-4.2 0-7.7-2.8-8-7.8h19.7c0.1-0.8 0.1-1.5 0.1-2.4 0-6.8-4.6-11.8-11.8-11.8-7.2 0-12.2 4.9-12.2 12.7 0 7.8 5.2 12.7 12.2 12.7 6.1 0 10.1-3.5 11.3-8zm10-5.8c0-5.7 3-7.4 6.9-7.4h1.1v-4.3c-3.9 0-6.6 1.7-8 4.5v-4h-4.1v24.6h4.1z"/><path class="a" d="m42.2 8.2q0 1.2-0.9 2.5-0.2 0.2-0.5 0.6-0.2 0.4-0.5 0.9-1.3 2.2-1.3 4.1l0.1 25.7q0 12.3-3.3 18.4-4.2 8.1-14.6 8.1-6.5 0-11.4-3.6-4.1-2.9-5.8-7-3.3-1.2-3.3-5.5 0-2.6 1.7-4.4 1.6-1.8 4.6-1.8l4.1 0.1q5.6 0 5.6 5.1 0 0.9-0.4 1.7-0.4 0.7-0.4 1.1 0 0.5 0.5 1.2 0.5 0.5 0.9 0.9 1.2 0.7 2.6 0.7 4.7 0.1 6.3-5 0.8-2.8 0.7-9.1l-0.1-26.8q0-1.9-1.4-3.9-2.2-3.1-2.2-4.3 0-4.1 2.3-5.3 1.8-1 6.9-1 5.6 0 7 0.7 2.8 1.2 2.8 5.9zm75.6 26.5q0 13.5-4.3 22.3-5.9 11.4-18.2 11.4-11.9 0-17.9-11.4-4.8-9-4.8-22 0-13.6 4.3-22.5 5.6-11.8 18.2-11.8 12.4 0 18.3 11.5 4.4 8.7 4.4 22.5zm-12.6 0.1q0-9.3-1.3-14.1-2.4-8.3-8.8-8.3-10 0-10 22.6 0 21.7 10.2 21.7 6.2 0 8.6-8 1.3-4.9 1.3-13.9zm84.2-27v1.3q-0.1 0.5-0.1 0.9 0 0.2 0 0.4 0 6.1-5.1 5.9-1.3 0-2.6-1l-0.7-0.7q-2-1.5-4.2-1.5h-12.5q-1.2 0-1.3 1.3v11.5q0 1.7 1.2 1.3h5.6q1.2 0 3-1.4 1.8-1.5 2.7-1.5 6.1 0 6.1 8.6 0 4-1 6-1.6 2.6-5.2 2.6-0.8 0-2.5-1.3-1.8-1.4-3-1.4h-5.7q-1.2 0.2-1.2 1.4v14.3q0 1.4 2 1.4l8.5-0.1q3 0 6-1.5 2.8-1.7 4.2-1.7 5.6 0 5.6 6.2v2.9q0 3.9-2 5.1-1.5 0.7-5.4 0.7h-26.9q-6 0-6-6.3 0-2.1 1.6-4.2 1.5-2.3 1.5-3.9v-37.2q0-2.6-1.3-3.7l-0.3-0.2q-1.7-1.5-1.7-4.8 0-5.7 6.3-5.7h29.8q4.8 0 4.6 6.3zm73.6 53.9q0 3.7-1.7 4.9-1.3 0.9-5.3 0.9h-27.2q-6.1 0-6.1-6.3 0-1.9 1.6-4.2 1.5-2.4 1.5-3.9v-37.2q0-2.5-1.6-4-1.6-1.5-1.6-4.7 0-2.5 1.3-4.2 1.4-1.8 3.8-1.8 6.7 0 8.1 0.3 4.6 1 4.6 5.5 0 3.1-1.6 4.2-1.7 1-1.7 3.6v38.9q0 1.1 0.5 1.7 0.5 0.5 1.1 0.5l8.6-0.1q3 0 5.9-1.5 2.8-1.7 4.2-1.7 3.7 0 5 3 0.6 1.3 0.6 6.1zm147.7 0q0 3.7-1.8 4.9-1.2 0.9-5.2 0.9h-27.3q-6 0-6-6.3 0-1.9 1.5-4.2 1.6-2.4 1.6-3.9v-37.2q0-2.5-1.7-4-1.6-1.5-1.6-4.7 0-2.5 1.4-4.2 1.3-1.8 3.7-1.8 6.8 0 8.1 0.3 4.7 1 4.7 5.5 0 3.1-1.7 4.2-1.6 1-1.6 3.6v38.9q0 1.1 0.4 1.7 0.5 0.5 1.1 0.5l8.6-0.1q3 0 5.9-1.5 2.9-1.7 4.2-1.7 3.8 0 5 3 0.7 1.3 0.7 6.1zm148.3-43.6q0 4.3-7.5 4.3-0.7 0-1.6 0-0.8-0.1-1.7-0.2-5.2-0.8-5.2-4.1 0-0.4 0.3-1.4 0.3-0.9 0.3-1.3 0-2.9-4.4-2.9-5.5 0-8.3 8.3-2 5.9-2 13.4 0 8.6 2.1 14.7 2.9 8.2 9.5 7.8 3.7-0.2 5.4-1.3 1.3-1 1.4-2.6 0.1-2.3 0-8.3 0-2.3-1.7-1.9-1.5 0.5-2.7 0.4-1.7-0.1-2.6-0.6-2.2-1.1-2.2-5.9 0-4.7 2.9-5.9 1.1-0.4 3-0.6 0.7 0 2.5 0.4 1.8 0.3 2.6 0.3 0.6 0 1.4 0 0.8 0 1.8-0.1 0.9-0.1 1.6-0.1 0.9 0 1.5 0 2.7 0.1 3.2 5.2 0.1 0.9-0.2 3-0.3 2.2-0.3 3v20.5q0 6.1-5.2 6.1-2.6 0-3.9-1.3-0.6-0.6-1.5-0.1-4.1 1.6-9.1 1.6-11.1 0-16.9-11.7-4.8-9.5-4.8-22.5 0-13 4.4-21.9 5.9-11.8 18-11.8 12.2 0 16.1 10.8 0.2 0.8 0.7 1.7 0.7 0.8 1.6 1.8 1.5 1.6 1.5 3.2zm75.6 44.4q0 2.7-2.7 4.1-2.3 1.3-4.7 1.3-10.5 0-10.5-5.3 0-0.8 1-2.7 1-2.3 1-3.4 0-1.2-0.3-2.5-0.3-1.3-0.5-1.3-0.2-1-0.9-1.1h-10.3q-0.5 0-0.9 0.8l-0.8 4q-0.3 1.4 0.8 4.6 0.3 0.8 0.3 1.2 0 5.5-7.9 5.5-8.8 0-8.8-5.3 0-1.4 2.4-5.4 1.2-2.1 1.9-3.6 0.7-1.6 0.9-2.8l5.1-20.4q3.4-13.6 3.4-19.8 0.1-0.3-0.1-0.8-0.2-0.6-0.5-1.1-0.3-0.6-0.6-1.2-0.3-0.6-0.4-1.1-0.2-0.9 0.1-2.3 0.5-2.5 3.5-2.8 0.4-0.1 6.6-0.1 2.9 0 4.4 0.1 1.6 0 2 0.1 3.1 0.3 3.8 2.8 0.3 1.1 0.1 2.3-0.1 1-0.7 2.1-0.6 1.1-0.6 2 0 2.7 9.3 40.4 0.3 2.2 2.7 6 1.9 3.3 1.9 5.7zm-18.9-21l-3.1-17.2q-0.2-1.7-0.9-1.7-0.6 0-0.9 1.7l-3.4 17.1q-0.1 0.4 0.4 0.4h7.6q0.4 0 0.3-0.3zm90.3 20.2q0 3.7-1.8 4.9-1.2 0.9-5.3 0.9h-27.2q-6 0-6-6.3 0-1.9 1.5-4.2 1.6-2.4 1.6-3.9v-37.2q0-2.5-1.7-4-1.6-1.5-1.6-4.7 0-2.5 1.4-4.2 1.3-1.8 3.7-1.8 6.7 0 8.1 0.3 4.7 1 4.7 5.5 0 3.1-1.7 4.2-1.6 1-1.6 3.6v38.9q0 1.1 0.4 1.7 0.5 0.5 1.1 0.5l8.6-0.1q3 0 5.9-1.5 2.8-1.7 4.2-1.7 3.8 0 5 3 0.7 1.3 0.7 6.1zm73.8 0q0 3.7-1.7 4.9-1.3 0.9-5.3 0.9h-27.3q-6 0-6-6.3 0-1.9 1.6-4.2 1.5-2.4 1.5-3.9v-37.2q0-2.5-1.6-4-1.7-1.5-1.7-4.7 0-2.5 1.4-4.2 1.4-1.8 3.7-1.8 6.8 0 8.1 0.3 4.7 1 4.7 5.5 0 3.1-1.7 4.2-1.6 1-1.6 3.6v38.9q0 1.1 0.5 1.7 0.4 0.5 1.1 0.5l8.5-0.1q3 0 5.9-1.5 2.9-1.7 4.2-1.7 3.8 0 5 3 0.7 1.3 0.7 6.1zm62.4-54.5q0 2.9-1.7 4.3-0.7 0.4-1.1 0.9-0.5 0.6-0.5 2.6v38.9q0 1.7 1.6 3.2 1.5 1.6 1.5 4.1 0 3.4-1.1 4.6-1.5 1.9-6 1.9l-3.7-0.1q-7.4 0-7.4-6.4 0-2.5 1.6-4.1 1.5-1.5 1.5-3.2v-38.9q0-2.6-0.9-3.1-2.4-1.6-2.4-4.7 0-5.9 7.2-5.9 5 0 5 0.1 3 0 4.4 0.7 2 1.4 2 5.1zm88.5-0.1q0 3-1.6 4.3-1.7 1.3-1.7 2.5v40.7q0 0.8 1.5 2.5 1.5 1.8 1.5 4 0 3.9-2 5.4-1.5 1.1-5.5 1.1-4.8 0-6.5-0.5-3.6-1.1-3.6-4.5 0-0.6 0.2-1.8 0.3-1.3 0.3-1.9 0-2.2-5.5-14l-6.8-14.5q-0.6-1.5-1.1-1.5-0.4 0-0.4 1.4v24.8q0 0.3 1.5 2.4 1.6 2 1.6 4.6 0 4.4-3.3 5.3-1 0.2-7 0.2-4.1 0-5.6-1.1-2-1.4-2-5.3 0-2.3 1.5-4.1 1.6-1.7 1.6-3.2v-38.9q0-1.6-1.6-3.7-1.5-2.1-1.5-4.7 0-5.2 5.6-5.2 0.6 0 1.3 0 0.8-0.1 1.7-0.1 0.8 0 1.4 0 0.7-0.1 1.2-0.1 6.7 0 6.7 6 0 0.3-0.2 0.8-0.1 0.6-0.1 0.9 0 1.2 5.6 14.3 2.5 5.7 4.2 9.6 1.8 3.8 2.8 5.9 0.3 0.5 0.7 0.5 0.3-0.4 0.3-0.7v-24.1q-0.1-1.1-1.7-2.9-1.6-1.7-1.6-4.4 0-3.1 1.2-4.4 1.2-1.3 4.3-1.3h5.8q6.8 0 6.8 5.7zm70.7 0.7v1.3q-0.1 0.5-0.1 0.9 0 0.2 0 0.4 0 6.1-5.1 5.9-1.2 0-2.5-1l-0.7-0.7q-2-1.5-4.2-1.5h-12.5q-1.2 0-1.4 1.3v11.5q0 1.7 1.3 1.3h5.6q1.1 0 3-1.4 1.8-1.5 2.6-1.5 6.1 0 6.1 8.6 0 4-1 6-1.5 2.6-5.2 2.6-0.7 0-2.4-1.3-1.9-1.4-3.1-1.4h-5.6q-1.3 0.2-1.3 1.4v14.3q0 1.4 2 1.4l8.6-0.1q3 0 5.9-1.5 2.8-1.7 4.2-1.7 5.7 0 5.7 6.2v2.9q0 3.9-2 5.1-1.5 0.7-5.4 0.7h-26.9q-6 0-6-6.3 0-2.1 1.5-4.2 1.6-2.3 1.6-3.9v-37.2q0-2.6-1.3-3.7l-0.4-0.2q-1.6-1.5-1.6-4.8 0-5.7 6.3-5.7h29.8q4.7 0 4.5 6.3zm75.4 54.4q0 4.2-2.5 5.1-1 0.4-5.3 0.4-4.3 0-5.5-0.3-2.4-0.6-3-2.5-0.4-1.1 0.1-3.5 0.5-2.5 0.5-2.7 0-1.1-0.5-2.4-0.9-2.1-2.4-5.2-1.3-3.2-3.2-7.4-1.4-3.3-6.2-3.2-1.7 0-1.7 2.4v5.1q-0.1 1.6-0.1 2.9 0 1.2 0 2 0 2.7 1.3 5 1.4 2.2 1.4 3.7-0.2 6-7.2 6-5.9 0-7-0.3-3.2-1-3.2-5.3 0-2.8 1.6-4.9 1.5-2.3 1.5-3.7v-37.5q0-1.6-1.6-4.3-1.6-2.6-1.6-4.4 0-5.7 6-5.7h14.2q9.4 0 15 4.7 6.3 5.1 6.3 14.6 0 11.3-7.8 15.9-0.7 0.4-0.7 1.2 0 0.6 0.8 2.1l4.5 9.5 4.5 7.9q1.8 3.4 1.8 4.8zm-15.1-41.3q0-1.5-0.7-2.9-0.5-1.4-1.6-2.4-1-1.1-2.4-1.7-1.3-0.6-2.8-0.6h-4.3q-2.8 0-2.8 3.9v10q0 1.6 2.4 1.8h3.8q4.1 0 6.2-2.4 2.2-2.4 2.2-5.7zm89.7 13.8q0 13.5-4.4 22.3-5.8 11.4-18.1 11.4-12 0-18-11.4-4.7-9-4.7-22 0-13.6 4.2-22.5 5.6-11.8 18.2-11.8 12.4 0 18.3 11.5 4.5 8.7 4.5 22.5zm-12.7 0.1q0-9.3-1.3-14.1-2.4-8.3-8.8-8.3-10 0-10 22.6 0 21.7 10.3 21.7 6.1 0 8.5-8 1.3-4.9 1.3-13.9z"/></svg>