<svg version="1.2" xmlns="http://www.w3.org/2000/svg" viewBox="0 0 588 600" width="588" height="600"><style></style><filter id="f0"><feFlood flood-color="#ffffff" flood-opacity="1" /><feBlend mode="normal" in2="SourceGraphic"/><feComposite in2="SourceAlpha" operator="in" /></filter><g filter="url(#f0)"><path  d="m167.3 83.3c0 46.1-37.3 83.4-83.3 83.4-46 0-83.3-37.3-83.3-83.4 0-46 37.3-83.3 83.3-83.3 46 0 83.3 37.3 83.3 83.3z"/><path  d="m377.3 83.3c0 46.1-37.3 83.4-83.3 83.4-46 0-83.3-37.3-83.3-83.4 0-46 37.3-83.3 83.3-83.3 46 0 83.3 37.3 83.3 83.3z"/><path  d="m504 166.7c46 0 83.3-37.3 83.3-83.4 0-46-37.3-83.3-83.3-83.3-46 0-83.3 37.3-83.3 83.3 0 46.1 37.3 83.4 83.3 83.4z"/><path  d="m167.3 300c0 46-37.3 83.3-83.3 83.3-46 0-83.3-37.3-83.3-83.3 0-46 37.3-83.3 83.3-83.3 46 0 83.3 37.3 83.3 83.3z"/><path  d="m294 383.3c46 0 83.3-37.3 83.3-83.3 0-46-37.3-83.3-83.3-83.3-46 0-83.3 37.3-83.3 83.3 0 46 37.3 83.3 83.3 83.3z"/><path  d="m587.3 300c0 46-37.3 83.3-83.3 83.3-46 0-83.3-37.3-83.3-83.3 0-46 37.3-83.3 83.3-83.3 46 0 83.3 37.3 83.3 83.3z"/><path  d="m84 600c46 0 83.3-37.3 83.3-83.3 0-46.1-37.3-83.4-83.3-83.4-46 0-83.3 37.3-83.3 83.4 0 46 37.3 83.3 83.3 83.3z"/><path  d="m377.3 516.7c0 46-37.3 83.3-83.3 83.3-46 0-83.3-37.3-83.3-83.3 0-46.1 37.3-83.4 83.3-83.4 46 0 83.3 37.3 83.3 83.4z"/><path  d="m504 600c46 0 83.3-37.3 83.3-83.3 0-46.1-37.3-83.4-83.3-83.4-46 0-83.3 37.3-83.3 83.4 0 46 37.3 83.3 83.3 83.3z"/></g></svg>