<svg version="1.2" xmlns="http://www.w3.org/2000/svg" viewBox="0 0 800 566" width="800" height="566"><style></style><filter id="f0"><feFlood flood-color="#ffffff" flood-opacity="1" /><feBlend mode="normal" in2="SourceGraphic"/><feComposite in2="SourceAlpha" operator="in" /></filter><g filter="url(#f0)"><path  d="m770.3 0.6h-740.6c-16.4 0-29.7 13.3-29.7 29.7v505.4c0 16.4 13.3 29.7 29.7 29.7h740.6c16.4 0 29.7-13.3 29.7-29.7v-505.4c0-16.4-13.3-29.7-29.7-29.7zm-711 85.8l201.4 137.5-201.4 232.3zm340.7 160.7l-274.3-187.2h548.6zm-90 10.5l73.3 49.9c5 3.5 10.9 5.2 16.7 5.2 5.8 0 11.7-1.7 16.7-5.2l73.2-49.9 215.5 248.5h-610.8zm229.2-33.7l201.4-137.4v369.8z"/></g></svg>