<svg version="1.2" xmlns="http://www.w3.org/2000/svg" viewBox="0 0 800 800" width="800" height="800"><style>.a{fill:#fff}</style><path class="a" d="m800 400c0 220.9-179.1 400-400 400-220.9 0-400-179.1-400-400 0-220.9 179.1-400 400-400 220.9 0 400 179.1 400 400zm-306.8 6.8c0-30.8-18.6-53.6-51.6-53.6-35.8 0-57.8 25.4-57.8 58 0 29.6 21.4 58.2 61 58.2 30 0 47.8-15.6 47.8-15.6l-13.6-25.8c0 0-14.8 10.6-31.2 10.6-11.8 0-23-6.2-25.8-20.4h70.4c-0.2-0.2 0.8-7.8 0.8-11.4zm-286-80.8c0 9.9 8.1 18 18 18 10 0 18-8.1 18-18 0-9.9-8-18-18-18-9.9 0-18 8.1-18 18zm50.6 114h-14v-84.2h-82.2v-5.4c0-10.6 10.6-10.8 16-10.8 6.2 0 9 0.6 9 0.6v-29.2c0 0-5.6-0.8-13.2-0.8-17.2 0-49 4.8-49 41.2v4.6h-15v27h15v57h-14v27h67.6v-27h-16.4v-57h45v57h-14v27h65.2zm113.8-57.2h12.4v-27h-59v27h10l-12.8 40c-2.4 6.6-3 14.6-3 14.6h-0.8c0 0-0.6-8-3-14.6l-12.8-40h10v-27h-59v27h12.4l30.8 84h44zm83 14.8h-31.8c2-8.6 7.2-16.4 17.8-16.4 8.2 0 14 7.6 14 16.4zm137.8-43.2c0 0-2.2-0.4-4.4-0.4-17-0.2-31 12.2-35.6 27.4h-0.4c0 0 0.4-2.2 0.4-5.6v-5.8c0-10.2-5.6-14.2-15.8-14.2h-35v27h10.4c3 0 4.8 1.8 4.8 4.8v52.4h-15v27h67.4v-27h-15v-16.2c0-20.2 10-33.4 30.6-33.4 4.6 0 7.6 0.6 7.6 0.6zm98.6 36.6v-36.6c0 0-2.2-0.4-4.4-0.4-16.8-0.2-30.8 12.2-35.6 27.4h-0.4c0 0 0.4-2.2 0.4-5.6v-5.8c0-10.2-5.6-14.2-15.8-14.2h-35v27h10.4c3 0 4.8 1.8 4.8 4.8v52.4h-15v27h67.4v-27h-15v-16.2c0-20.2 10-33.4 30.6-33.4 4.6 0 7.6 0.6 7.6 0.6z"/></svg>