<svg version="1.2" xmlns="http://www.w3.org/2000/svg" viewBox="0 0 800 700" width="800" height="700"><style></style><filter id="f0"><feFlood flood-color="#ffffff" flood-opacity="1" /><feBlend mode="normal" in2="SourceGraphic"/><feComposite in2="SourceAlpha" operator="in" /></filter><g filter="url(#f0)"><path fill-rule="evenodd" d="m500 100c0 55.2-44.8 100-100 100-55.2 0-100-44.8-100-100 0-55.2 44.8-100 100-100 55.2 0 100 44.8 100 100zm300 250c0 55.2-44.8 100-100 100-55.2 0-100-44.8-100-100 0-55.2 44.8-100 100-100 55.2 0 100 44.8 100 100zm-300 250c0 55.2-44.8 100-100 100-55.2 0-100-44.8-100-100 0-55.2 44.8-100 100-100 55.2 0 100 44.8 100 100zm300 0c0 55.2-44.8 100-100 100-55.2 0-100-44.8-100-100 0-55.2 44.8-100 100-100 55.2 0 100 44.8 100 100zm-300-250c0 55.2-44.8 100-100 100-55.2 0-100-44.8-100-100 0-55.2 44.8-100 100-100 55.2 0 100 44.8 100 100zm100-250c0-55.2 44.8-100 100-100 55.2 0 100 44.8 100 100 0 55.2-44.8 100-100 100-55.2 0-100-44.8-100-100zm-400 500c0 55.2-44.8 100-100 100-55.2 0-100-44.8-100-100 0-55.2 44.8-100 100-100 55.2 0 100 44.8 100 100zm0-250c0 55.2-44.8 100-100 100-55.2 0-100-44.8-100-100 0-55.2 44.8-100 100-100 55.2 0 100 44.8 100 100zm0-250c0 55.2-44.8 100-100 100-55.2 0-100-44.8-100-100 0-55.2 44.8-100 100-100 55.2 0 100 44.8 100 100z"/></g></svg>