<svg version="1.2" xmlns="http://www.w3.org/2000/svg" viewBox="0 0 800 800" width="800" height="800"><style>.a{fill:#fff}</style><path class="a" d="m737.5 0h-675c-34.5 0-62.5 28-62.5 62.5v675c0 34.5 28 62.5 62.5 62.5h675c34.5 0 62.5-28 62.5-62.5v-675c0-34.5-28-62.5-62.5-62.5zm-449.4 567.3h-77.9v-249.5h77.9zm-41.1-280.8h-0.6c-28.3 0-46.6-19-46.6-43.2 0-24.7 18.9-43.3 47.7-43.3 28.7 0 46.4 18.6 47 43.3 0.2 24-18.1 43.2-47.5 43.2zm353 280.8h-88.4v-129c0-33.8-13.8-56.9-44.3-56.9-23.2 0-36.2 15.6-42.1 30.6-2.2 5.3-1.9 12.8-1.9 20.5v134.8h-87.7c0 0 1.1-228.7 0-249.5h87.7v39.2c5.1-17.2 33.1-41.6 77.8-41.6 55.5 0 98.9 36 98.9 113.2z"/></svg>