<svg version="1.2" xmlns="http://www.w3.org/2000/svg" viewBox="0 0 668 668" width="668" height="668"><style>.a{fill:#fff}</style><path fill-rule="evenodd" class="a" d="m667.3 324c0 185.8-145.6 323.4-333.3 323.4-33.8 0-66.1-4.6-96.5-12.9-5.9-1.6-12.2-1.1-17.8 1.3l-66.2 29.2c-4 1.8-8.3 2.5-12.7 2.2-4.3-0.3-8.6-1.7-12.2-4-3.7-2.3-6.8-5.5-9-9.3-2.1-3.8-3.3-8.1-3.5-12.4l-1.8-59.4c-0.3-7.3-3.6-14-9-18.9-64.8-58-104.6-142-104.6-239.2 0-185.8 145.6-323.3 333.4-323.3 187.6 0 333.2 137.5 333.2 323.3zm-177.8-88.6l-89.6 68c-3 2.2-6.6 3.4-10.3 3.4-3.7 0-7.3-1.2-10.2-3.4l-66.4-49.7c-4.7-3.6-10.1-6.1-15.9-7.4-5.7-1.4-11.7-1.5-17.4-0.4-5.8 1-11.3 3.3-16.2 6.6-4.9 3.3-9 7.6-12.2 12.6l-83.5 132.3c-7.9 12.7 7.8 27 19.7 17.9l89.6-68c2.9-2.2 6.5-3.4 10.2-3.4 3.7 0 7.3 1.2 10.3 3.4l66.4 49.8c4.7 3.5 10.1 6 15.8 7.4 5.7 1.3 11.7 1.4 17.5 0.4 5.8-1.1 11.3-3.4 16.2-6.7 4.8-3.3 9-7.5 12.1-12.5l83.5-132.4c8.1-12.8-7.6-27.1-19.6-17.9z"/></svg>