<?xml version="1.0" encoding="utf-8"?>
<!DOCTYPE svg PUBLIC "-//W3C//DTD SVG 1.1//EN" "http://www.w3.org/Graphics/SVG/1.1/DTD/svg11.dtd">
<svg version="1.1" id="Layer_1" xmlns="http://www.w3.org/2000/svg" xmlns:xlink="http://www.w3.org/1999/xlink" x="0px" y="0px"
width="1160px" height="1160px" viewBox="0 0 1160 1160" enable-background="new 0 0 1160 1160" xml:space="preserve">
<rect x="0" y="0" width="1160" height="1160" fill="rgb(0,0,0)" /><g transform="translate(80,80)"><g transform="translate(400,0) scale(0.08,0.08)"><g transform="" style="fill: rgb(255, 255, 255);">
<path d="M250,0c138.077,0,250,111.93,250,250c0,138.077-111.923,250-250,250C111.93,500,0,388.077,0,250C0,111.93,111.93,0,250,0z"
	/>
</g></g><g transform="translate(480,0) scale(0.08,0.08)"><g transform="" style="fill: rgb(255, 255, 255);">
<path d="M250,0c138.077,0,250,111.93,250,250c0,138.077-111.923,250-250,250C111.93,500,0,388.077,0,250C0,111.93,111.93,0,250,0z"
	/>
</g></g><g transform="translate(560,0) scale(0.08,0.08)"><g transform="" style="fill: rgb(255, 255, 255);">
<path d="M250,0c138.077,0,250,111.93,250,250c0,138.077-111.923,250-250,250C111.93,500,0,388.077,0,250C0,111.93,111.93,0,250,0z"
	/>
</g></g><g transform="translate(600,0) scale(0.08,0.08)"><g transform="" style="fill: rgb(255, 255, 255);">
<path d="M250,0c138.077,0,250,111.93,250,250c0,138.077-111.923,250-250,250C111.93,500,0,388.077,0,250C0,111.93,111.93,0,250,0z"
	/>
</g></g><g transform="translate(360,40) scale(0.08,0.08)"><g transform="" style="fill: rgb(255, 255, 255);">
<path d="M250,0c138.077,0,250,111.93,250,250c0,138.077-111.923,250-250,250C111.93,500,0,388.077,0,250C0,111.93,111.93,0,250,0z"
	/>
</g></g><g transform="translate(440,40) scale(0.08,0.08)"><g transform="" style="fill: rgb(255, 255, 255);">
<path d="M250,0c138.077,0,250,111.93,250,250c0,138.077-111.923,250-250,250C111.93,500,0,388.077,0,250C0,111.93,111.93,0,250,0z"
	/>
</g></g><g transform="translate(520,40) scale(0.08,0.08)"><g transform="" style="fill: rgb(255, 255, 255);">
<path d="M250,0c138.077,0,250,111.93,250,250c0,138.077-111.923,250-250,250C111.93,500,0,388.077,0,250C0,111.93,111.93,0,250,0z"
	/>
</g></g><g transform="translate(560,40) scale(0.08,0.08)"><g transform="" style="fill: rgb(255, 255, 255);">
<path d="M250,0c138.077,0,250,111.93,250,250c0,138.077-111.923,250-250,250C111.93,500,0,388.077,0,250C0,111.93,111.93,0,250,0z"
	/>
</g></g><g transform="translate(600,40) scale(0.08,0.08)"><g transform="" style="fill: rgb(255, 255, 255);">
<path d="M250,0c138.077,0,250,111.93,250,250c0,138.077-111.923,250-250,250C111.93,500,0,388.077,0,250C0,111.93,111.93,0,250,0z"
	/>
</g></g><g transform="translate(640,40) scale(0.08,0.08)"><g transform="" style="fill: rgb(255, 255, 255);">
<path d="M250,0c138.077,0,250,111.93,250,250c0,138.077-111.923,250-250,250C111.93,500,0,388.077,0,250C0,111.93,111.93,0,250,0z"
	/>
</g></g><g transform="translate(360,80) scale(0.08,0.08)"><g transform="" style="fill: rgb(255, 255, 255);">
<path d="M250,0c138.077,0,250,111.93,250,250c0,138.077-111.923,250-250,250C111.93,500,0,388.077,0,250C0,111.93,111.93,0,250,0z"
	/>
</g></g><g transform="translate(400,80) scale(0.08,0.08)"><g transform="" style="fill: rgb(255, 255, 255);">
<path d="M250,0c138.077,0,250,111.93,250,250c0,138.077-111.923,250-250,250C111.93,500,0,388.077,0,250C0,111.93,111.93,0,250,0z"
	/>
</g></g><g transform="translate(440,80) scale(0.08,0.08)"><g transform="" style="fill: rgb(255, 255, 255);">
<path d="M250,0c138.077,0,250,111.93,250,250c0,138.077-111.923,250-250,250C111.93,500,0,388.077,0,250C0,111.93,111.93,0,250,0z"
	/>
</g></g><g transform="translate(560,80) scale(0.08,0.08)"><g transform="" style="fill: rgb(255, 255, 255);">
<path d="M250,0c138.077,0,250,111.93,250,250c0,138.077-111.923,250-250,250C111.93,500,0,388.077,0,250C0,111.93,111.93,0,250,0z"
	/>
</g></g><g transform="translate(560,120) scale(0.08,0.08)"><g transform="" style="fill: rgb(255, 255, 255);">
<path d="M250,0c138.077,0,250,111.93,250,250c0,138.077-111.923,250-250,250C111.93,500,0,388.077,0,250C0,111.93,111.93,0,250,0z"
	/>
</g></g><g transform="translate(360,160) scale(0.08,0.08)"><g transform="" style="fill: rgb(255, 255, 255);">
<path d="M250,0c138.077,0,250,111.93,250,250c0,138.077-111.923,250-250,250C111.93,500,0,388.077,0,250C0,111.93,111.93,0,250,0z"
	/>
</g></g><g transform="translate(480,160) scale(0.08,0.08)"><g transform="" style="fill: rgb(255, 255, 255);">
<path d="M250,0c138.077,0,250,111.93,250,250c0,138.077-111.923,250-250,250C111.93,500,0,388.077,0,250C0,111.93,111.93,0,250,0z"
	/>
</g></g><g transform="translate(520,160) scale(0.08,0.08)"><g transform="" style="fill: rgb(255, 255, 255);">
<path d="M250,0c138.077,0,250,111.93,250,250c0,138.077-111.923,250-250,250C111.93,500,0,388.077,0,250C0,111.93,111.93,0,250,0z"
	/>
</g></g><g transform="translate(560,160) scale(0.08,0.08)"><g transform="" style="fill: rgb(255, 255, 255);">
<path d="M250,0c138.077,0,250,111.93,250,250c0,138.077-111.923,250-250,250C111.93,500,0,388.077,0,250C0,111.93,111.93,0,250,0z"
	/>
</g></g><g transform="translate(600,160) scale(0.08,0.08)"><g transform="" style="fill: rgb(255, 255, 255);">
<path d="M250,0c138.077,0,250,111.93,250,250c0,138.077-111.923,250-250,250C111.93,500,0,388.077,0,250C0,111.93,111.93,0,250,0z"
	/>
</g></g><g transform="translate(640,160) scale(0.08,0.08)"><g transform="" style="fill: rgb(255, 255, 255);">
<path d="M250,0c138.077,0,250,111.93,250,250c0,138.077-111.923,250-250,250C111.93,500,0,388.077,0,250C0,111.93,111.93,0,250,0z"
	/>
</g></g><g transform="translate(320,200) scale(0.08,0.08)"><g transform="" style="fill: rgb(255, 255, 255);">
<path d="M250,0c138.077,0,250,111.93,250,250c0,138.077-111.923,250-250,250C111.93,500,0,388.077,0,250C0,111.93,111.93,0,250,0z"
	/>
</g></g><g transform="translate(360,200) scale(0.08,0.08)"><g transform="" style="fill: rgb(255, 255, 255);">
<path d="M250,0c138.077,0,250,111.93,250,250c0,138.077-111.923,250-250,250C111.93,500,0,388.077,0,250C0,111.93,111.93,0,250,0z"
	/>
</g></g><g transform="translate(440,200) scale(0.08,0.08)"><g transform="" style="fill: rgb(255, 255, 255);">
<path d="M250,0c138.077,0,250,111.93,250,250c0,138.077-111.923,250-250,250C111.93,500,0,388.077,0,250C0,111.93,111.93,0,250,0z"
	/>
</g></g><g transform="translate(480,200) scale(0.08,0.08)"><g transform="" style="fill: rgb(255, 255, 255);">
<path d="M250,0c138.077,0,250,111.93,250,250c0,138.077-111.923,250-250,250C111.93,500,0,388.077,0,250C0,111.93,111.93,0,250,0z"
	/>
</g></g><g transform="translate(520,200) scale(0.08,0.08)"><g transform="" style="fill: rgb(255, 255, 255);">
<path d="M250,0c138.077,0,250,111.93,250,250c0,138.077-111.923,250-250,250C111.93,500,0,388.077,0,250C0,111.93,111.93,0,250,0z"
	/>
</g></g><g transform="translate(560,200) scale(0.08,0.08)"><g transform="" style="fill: rgb(255, 255, 255);">
<path d="M250,0c138.077,0,250,111.93,250,250c0,138.077-111.923,250-250,250C111.93,500,0,388.077,0,250C0,111.93,111.93,0,250,0z"
	/>
</g></g><g transform="translate(600,200) scale(0.08,0.08)"><g transform="" style="fill: rgb(255, 255, 255);">
<path d="M250,0c138.077,0,250,111.93,250,250c0,138.077-111.923,250-250,250C111.93,500,0,388.077,0,250C0,111.93,111.93,0,250,0z"
	/>
</g></g><g transform="translate(640,200) scale(0.08,0.08)"><g transform="" style="fill: rgb(255, 255, 255);">
<path d="M250,0c138.077,0,250,111.93,250,250c0,138.077-111.923,250-250,250C111.93,500,0,388.077,0,250C0,111.93,111.93,0,250,0z"
	/>
</g></g><g transform="translate(320,240) scale(0.08,0.08)"><g transform="" style="fill: rgb(255, 255, 255);">
<path d="M250,0c138.077,0,250,111.93,250,250c0,138.077-111.923,250-250,250C111.93,500,0,388.077,0,250C0,111.93,111.93,0,250,0z"
	/>
</g></g><g transform="translate(400,240) scale(0.08,0.08)"><g transform="" style="fill: rgb(255, 255, 255);">
<path d="M250,0c138.077,0,250,111.93,250,250c0,138.077-111.923,250-250,250C111.93,500,0,388.077,0,250C0,111.93,111.93,0,250,0z"
	/>
</g></g><g transform="translate(480,240) scale(0.08,0.08)"><g transform="" style="fill: rgb(255, 255, 255);">
<path d="M250,0c138.077,0,250,111.93,250,250c0,138.077-111.923,250-250,250C111.93,500,0,388.077,0,250C0,111.93,111.93,0,250,0z"
	/>
</g></g><g transform="translate(560,240) scale(0.08,0.08)"><g transform="" style="fill: rgb(255, 255, 255);">
<path d="M250,0c138.077,0,250,111.93,250,250c0,138.077-111.923,250-250,250C111.93,500,0,388.077,0,250C0,111.93,111.93,0,250,0z"
	/>
</g></g><g transform="translate(640,240) scale(0.08,0.08)"><g transform="" style="fill: rgb(255, 255, 255);">
<path d="M250,0c138.077,0,250,111.93,250,250c0,138.077-111.923,250-250,250C111.93,500,0,388.077,0,250C0,111.93,111.93,0,250,0z"
	/>
</g></g><g transform="translate(400,280) scale(0.08,0.08)"><g transform="" style="fill: rgb(255, 255, 255);">
<path d="M250,0c138.077,0,250,111.93,250,250c0,138.077-111.923,250-250,250C111.93,500,0,388.077,0,250C0,111.93,111.93,0,250,0z"
	/>
</g></g><g transform="translate(480,280) scale(0.08,0.08)"><g transform="" style="fill: rgb(255, 255, 255);">
<path d="M250,0c138.077,0,250,111.93,250,250c0,138.077-111.923,250-250,250C111.93,500,0,388.077,0,250C0,111.93,111.93,0,250,0z"
	/>
</g></g><g transform="translate(560,280) scale(0.08,0.08)"><g transform="" style="fill: rgb(255, 255, 255);">
<path d="M250,0c138.077,0,250,111.93,250,250c0,138.077-111.923,250-250,250C111.93,500,0,388.077,0,250C0,111.93,111.93,0,250,0z"
	/>
</g></g><g transform="translate(600,280) scale(0.08,0.08)"><g transform="" style="fill: rgb(255, 255, 255);">
<path d="M250,0c138.077,0,250,111.93,250,250c0,138.077-111.923,250-250,250C111.93,500,0,388.077,0,250C0,111.93,111.93,0,250,0z"
	/>
</g></g><g transform="translate(0,320) scale(0.08,0.08)"><g transform="" style="fill: rgb(255, 255, 255);">
<path d="M250,0c138.077,0,250,111.93,250,250c0,138.077-111.923,250-250,250C111.93,500,0,388.077,0,250C0,111.93,111.93,0,250,0z"
	/>
</g></g><g transform="translate(120,320) scale(0.08,0.08)"><g transform="" style="fill: rgb(255, 255, 255);">
<path d="M250,0c138.077,0,250,111.93,250,250c0,138.077-111.923,250-250,250C111.93,500,0,388.077,0,250C0,111.93,111.93,0,250,0z"
	/>
</g></g><g transform="translate(200,320) scale(0.08,0.08)"><g transform="" style="fill: rgb(255, 255, 255);">
<path d="M250,0c138.077,0,250,111.93,250,250c0,138.077-111.923,250-250,250C111.93,500,0,388.077,0,250C0,111.93,111.93,0,250,0z"
	/>
</g></g><g transform="translate(240,320) scale(0.08,0.08)"><g transform="" style="fill: rgb(255, 255, 255);">
<path d="M250,0c138.077,0,250,111.93,250,250c0,138.077-111.923,250-250,250C111.93,500,0,388.077,0,250C0,111.93,111.93,0,250,0z"
	/>
</g></g><g transform="translate(320,320) scale(0.08,0.08)"><g transform="" style="fill: rgb(255, 255, 255);">
<path d="M250,0c138.077,0,250,111.93,250,250c0,138.077-111.923,250-250,250C111.93,500,0,388.077,0,250C0,111.93,111.93,0,250,0z"
	/>
</g></g><g transform="translate(360,320) scale(0.08,0.08)"><g transform="" style="fill: rgb(255, 255, 255);">
<path d="M250,0c138.077,0,250,111.93,250,250c0,138.077-111.923,250-250,250C111.93,500,0,388.077,0,250C0,111.93,111.93,0,250,0z"
	/>
</g></g><g transform="translate(400,320) scale(0.08,0.08)"><g transform="" style="fill: rgb(255, 255, 255);">
<path d="M250,0c138.077,0,250,111.93,250,250c0,138.077-111.923,250-250,250C111.93,500,0,388.077,0,250C0,111.93,111.93,0,250,0z"
	/>
</g></g><g transform="translate(520,320) scale(0.08,0.08)"><g transform="" style="fill: rgb(255, 255, 255);">
<path d="M250,0c138.077,0,250,111.93,250,250c0,138.077-111.923,250-250,250C111.93,500,0,388.077,0,250C0,111.93,111.93,0,250,0z"
	/>
</g></g><g transform="translate(560,320) scale(0.08,0.08)"><g transform="" style="fill: rgb(255, 255, 255);">
<path d="M250,0c138.077,0,250,111.93,250,250c0,138.077-111.923,250-250,250C111.93,500,0,388.077,0,250C0,111.93,111.93,0,250,0z"
	/>
</g></g><g transform="translate(640,320) scale(0.08,0.08)"><g transform="" style="fill: rgb(255, 255, 255);">
<path d="M250,0c138.077,0,250,111.93,250,250c0,138.077-111.923,250-250,250C111.93,500,0,388.077,0,250C0,111.93,111.93,0,250,0z"
	/>
</g></g><g transform="translate(680,320) scale(0.08,0.08)"><g transform="" style="fill: rgb(255, 255, 255);">
<path d="M250,0c138.077,0,250,111.93,250,250c0,138.077-111.923,250-250,250C111.93,500,0,388.077,0,250C0,111.93,111.93,0,250,0z"
	/>
</g></g><g transform="translate(760,320) scale(0.08,0.08)"><g transform="" style="fill: rgb(255, 255, 255);">
<path d="M250,0c138.077,0,250,111.93,250,250c0,138.077-111.923,250-250,250C111.93,500,0,388.077,0,250C0,111.93,111.93,0,250,0z"
	/>
</g></g><g transform="translate(80,360) scale(0.08,0.08)"><g transform="" style="fill: rgb(255, 255, 255);">
<path d="M250,0c138.077,0,250,111.93,250,250c0,138.077-111.923,250-250,250C111.93,500,0,388.077,0,250C0,111.93,111.93,0,250,0z"
	/>
</g></g><g transform="translate(160,360) scale(0.08,0.08)"><g transform="" style="fill: rgb(255, 255, 255);">
<path d="M250,0c138.077,0,250,111.93,250,250c0,138.077-111.923,250-250,250C111.93,500,0,388.077,0,250C0,111.93,111.93,0,250,0z"
	/>
</g></g><g transform="translate(200,360) scale(0.08,0.08)"><g transform="" style="fill: rgb(255, 255, 255);">
<path d="M250,0c138.077,0,250,111.93,250,250c0,138.077-111.923,250-250,250C111.93,500,0,388.077,0,250C0,111.93,111.93,0,250,0z"
	/>
</g></g><g transform="translate(280,360) scale(0.08,0.08)"><g transform="" style="fill: rgb(255, 255, 255);">
<path d="M250,0c138.077,0,250,111.93,250,250c0,138.077-111.923,250-250,250C111.93,500,0,388.077,0,250C0,111.93,111.93,0,250,0z"
	/>
</g></g><g transform="translate(400,360) scale(0.08,0.08)"><g transform="" style="fill: rgb(255, 255, 255);">
<path d="M250,0c138.077,0,250,111.93,250,250c0,138.077-111.923,250-250,250C111.93,500,0,388.077,0,250C0,111.93,111.93,0,250,0z"
	/>
</g></g><g transform="translate(440,360) scale(0.08,0.08)"><g transform="" style="fill: rgb(255, 255, 255);">
<path d="M250,0c138.077,0,250,111.93,250,250c0,138.077-111.923,250-250,250C111.93,500,0,388.077,0,250C0,111.93,111.93,0,250,0z"
	/>
</g></g><g transform="translate(640,360) scale(0.08,0.08)"><g transform="" style="fill: rgb(255, 255, 255);">
<path d="M250,0c138.077,0,250,111.93,250,250c0,138.077-111.923,250-250,250C111.93,500,0,388.077,0,250C0,111.93,111.93,0,250,0z"
	/>
</g></g><g transform="translate(680,360) scale(0.08,0.08)"><g transform="" style="fill: rgb(255, 255, 255);">
<path d="M250,0c138.077,0,250,111.93,250,250c0,138.077-111.923,250-250,250C111.93,500,0,388.077,0,250C0,111.93,111.93,0,250,0z"
	/>
</g></g><g transform="translate(720,360) scale(0.08,0.08)"><g transform="" style="fill: rgb(255, 255, 255);">
<path d="M250,0c138.077,0,250,111.93,250,250c0,138.077-111.923,250-250,250C111.93,500,0,388.077,0,250C0,111.93,111.93,0,250,0z"
	/>
</g></g><g transform="translate(760,360) scale(0.08,0.08)"><g transform="" style="fill: rgb(255, 255, 255);">
<path d="M250,0c138.077,0,250,111.93,250,250c0,138.077-111.923,250-250,250C111.93,500,0,388.077,0,250C0,111.93,111.93,0,250,0z"
	/>
</g></g><g transform="translate(960,360) scale(0.08,0.08)"><g transform="" style="fill: rgb(255, 255, 255);">
<path d="M250,0c138.077,0,250,111.93,250,250c0,138.077-111.923,250-250,250C111.93,500,0,388.077,0,250C0,111.93,111.93,0,250,0z"
	/>
</g></g><g transform="translate(0,400) scale(0.08,0.08)"><g transform="" style="fill: rgb(255, 255, 255);">
<path d="M250,0c138.077,0,250,111.93,250,250c0,138.077-111.923,250-250,250C111.93,500,0,388.077,0,250C0,111.93,111.93,0,250,0z"
	/>
</g></g><g transform="translate(200,400) scale(0.08,0.08)"><g transform="" style="fill: rgb(255, 255, 255);">
<path d="M250,0c138.077,0,250,111.93,250,250c0,138.077-111.923,250-250,250C111.93,500,0,388.077,0,250C0,111.93,111.93,0,250,0z"
	/>
</g></g><g transform="translate(240,400) scale(0.08,0.08)"><g transform="" style="fill: rgb(255, 255, 255);">
<path d="M250,0c138.077,0,250,111.93,250,250c0,138.077-111.923,250-250,250C111.93,500,0,388.077,0,250C0,111.93,111.93,0,250,0z"
	/>
</g></g><g transform="translate(320,400) scale(0.08,0.08)"><g transform="" style="fill: rgb(255, 255, 255);">
<path d="M250,0c138.077,0,250,111.93,250,250c0,138.077-111.923,250-250,250C111.93,500,0,388.077,0,250C0,111.93,111.93,0,250,0z"
	/>
</g></g><g transform="translate(360,400) scale(0.08,0.08)"><g transform="" style="fill: rgb(255, 255, 255);">
<path d="M250,0c138.077,0,250,111.93,250,250c0,138.077-111.923,250-250,250C111.93,500,0,388.077,0,250C0,111.93,111.93,0,250,0z"
	/>
</g></g><g transform="translate(400,400) scale(0.08,0.08)"><g transform="" style="fill: rgb(255, 255, 255);">
<path d="M250,0c138.077,0,250,111.93,250,250c0,138.077-111.923,250-250,250C111.93,500,0,388.077,0,250C0,111.93,111.93,0,250,0z"
	/>
</g></g><g transform="translate(520,400) scale(0.08,0.08)"><g transform="" style="fill: rgb(255, 255, 255);">
<path d="M250,0c138.077,0,250,111.93,250,250c0,138.077-111.923,250-250,250C111.93,500,0,388.077,0,250C0,111.93,111.93,0,250,0z"
	/>
</g></g><g transform="translate(640,400) scale(0.08,0.08)"><g transform="" style="fill: rgb(255, 255, 255);">
<path d="M250,0c138.077,0,250,111.93,250,250c0,138.077-111.923,250-250,250C111.93,500,0,388.077,0,250C0,111.93,111.93,0,250,0z"
	/>
</g></g><g transform="translate(680,400) scale(0.08,0.08)"><g transform="" style="fill: rgb(255, 255, 255);">
<path d="M250,0c138.077,0,250,111.93,250,250c0,138.077-111.923,250-250,250C111.93,500,0,388.077,0,250C0,111.93,111.93,0,250,0z"
	/>
</g></g><g transform="translate(800,400) scale(0.08,0.08)"><g transform="" style="fill: rgb(255, 255, 255);">
<path d="M250,0c138.077,0,250,111.93,250,250c0,138.077-111.923,250-250,250C111.93,500,0,388.077,0,250C0,111.93,111.93,0,250,0z"
	/>
</g></g><g transform="translate(920,400) scale(0.08,0.08)"><g transform="" style="fill: rgb(255, 255, 255);">
<path d="M250,0c138.077,0,250,111.93,250,250c0,138.077-111.923,250-250,250C111.93,500,0,388.077,0,250C0,111.93,111.93,0,250,0z"
	/>
</g></g><g transform="translate(960,400) scale(0.08,0.08)"><g transform="" style="fill: rgb(255, 255, 255);">
<path d="M250,0c138.077,0,250,111.93,250,250c0,138.077-111.923,250-250,250C111.93,500,0,388.077,0,250C0,111.93,111.93,0,250,0z"
	/>
</g></g><g transform="translate(0,440) scale(0.08,0.08)"><g transform="" style="fill: rgb(255, 255, 255);">
<path d="M250,0c138.077,0,250,111.93,250,250c0,138.077-111.923,250-250,250C111.93,500,0,388.077,0,250C0,111.93,111.93,0,250,0z"
	/>
</g></g><g transform="translate(160,440) scale(0.08,0.08)"><g transform="" style="fill: rgb(255, 255, 255);">
<path d="M250,0c138.077,0,250,111.93,250,250c0,138.077-111.923,250-250,250C111.93,500,0,388.077,0,250C0,111.93,111.93,0,250,0z"
	/>
</g></g><g transform="translate(200,440) scale(0.08,0.08)"><g transform="" style="fill: rgb(255, 255, 255);">
<path d="M250,0c138.077,0,250,111.93,250,250c0,138.077-111.923,250-250,250C111.93,500,0,388.077,0,250C0,111.93,111.93,0,250,0z"
	/>
</g></g><g transform="translate(280,440) scale(0.08,0.08)"><g transform="" style="fill: rgb(255, 255, 255);">
<path d="M250,0c138.077,0,250,111.93,250,250c0,138.077-111.923,250-250,250C111.93,500,0,388.077,0,250C0,111.93,111.93,0,250,0z"
	/>
</g></g><g transform="translate(320,440) scale(0.08,0.08)"><g transform="" style="fill: rgb(255, 255, 255);">
<path d="M250,0c138.077,0,250,111.93,250,250c0,138.077-111.923,250-250,250C111.93,500,0,388.077,0,250C0,111.93,111.93,0,250,0z"
	/>
</g></g><g transform="translate(400,440) scale(0.08,0.08)"><g transform="" style="fill: rgb(255, 255, 255);">
<path d="M250,0c138.077,0,250,111.93,250,250c0,138.077-111.923,250-250,250C111.93,500,0,388.077,0,250C0,111.93,111.93,0,250,0z"
	/>
</g></g><g transform="translate(520,440) scale(0.08,0.08)"><g transform="" style="fill: rgb(255, 255, 255);">
<path d="M250,0c138.077,0,250,111.93,250,250c0,138.077-111.923,250-250,250C111.93,500,0,388.077,0,250C0,111.93,111.93,0,250,0z"
	/>
</g></g><g transform="translate(560,440) scale(0.08,0.08)"><g transform="" style="fill: rgb(255, 255, 255);">
<path d="M250,0c138.077,0,250,111.93,250,250c0,138.077-111.923,250-250,250C111.93,500,0,388.077,0,250C0,111.93,111.93,0,250,0z"
	/>
</g></g><g transform="translate(640,440) scale(0.08,0.08)"><g transform="" style="fill: rgb(255, 255, 255);">
<path d="M250,0c138.077,0,250,111.93,250,250c0,138.077-111.923,250-250,250C111.93,500,0,388.077,0,250C0,111.93,111.93,0,250,0z"
	/>
</g></g><g transform="translate(720,440) scale(0.08,0.08)"><g transform="" style="fill: rgb(255, 255, 255);">
<path d="M250,0c138.077,0,250,111.93,250,250c0,138.077-111.923,250-250,250C111.93,500,0,388.077,0,250C0,111.93,111.93,0,250,0z"
	/>
</g></g><g transform="translate(40,480) scale(0.08,0.08)"><g transform="" style="fill: rgb(255, 255, 255);">
<path d="M250,0c138.077,0,250,111.93,250,250c0,138.077-111.923,250-250,250C111.93,500,0,388.077,0,250C0,111.93,111.93,0,250,0z"
	/>
</g></g><g transform="translate(80,480) scale(0.08,0.08)"><g transform="" style="fill: rgb(255, 255, 255);">
<path d="M250,0c138.077,0,250,111.93,250,250c0,138.077-111.923,250-250,250C111.93,500,0,388.077,0,250C0,111.93,111.93,0,250,0z"
	/>
</g></g><g transform="translate(120,480) scale(0.08,0.08)"><g transform="" style="fill: rgb(255, 255, 255);">
<path d="M250,0c138.077,0,250,111.93,250,250c0,138.077-111.923,250-250,250C111.93,500,0,388.077,0,250C0,111.93,111.93,0,250,0z"
	/>
</g></g><g transform="translate(160,480) scale(0.08,0.08)"><g transform="" style="fill: rgb(255, 255, 255);">
<path d="M250,0c138.077,0,250,111.93,250,250c0,138.077-111.923,250-250,250C111.93,500,0,388.077,0,250C0,111.93,111.93,0,250,0z"
	/>
</g></g><g transform="translate(240,480) scale(0.08,0.08)"><g transform="" style="fill: rgb(255, 255, 255);">
<path d="M250,0c138.077,0,250,111.93,250,250c0,138.077-111.923,250-250,250C111.93,500,0,388.077,0,250C0,111.93,111.93,0,250,0z"
	/>
</g></g><g transform="translate(280,480) scale(0.08,0.08)"><g transform="" style="fill: rgb(255, 255, 255);">
<path d="M250,0c138.077,0,250,111.93,250,250c0,138.077-111.923,250-250,250C111.93,500,0,388.077,0,250C0,111.93,111.93,0,250,0z"
	/>
</g></g><g transform="translate(400,480) scale(0.08,0.08)"><g transform="" style="fill: rgb(255, 255, 255);">
<path d="M250,0c138.077,0,250,111.93,250,250c0,138.077-111.923,250-250,250C111.93,500,0,388.077,0,250C0,111.93,111.93,0,250,0z"
	/>
</g></g><g transform="translate(440,480) scale(0.08,0.08)"><g transform="" style="fill: rgb(255, 255, 255);">
<path d="M250,0c138.077,0,250,111.93,250,250c0,138.077-111.923,250-250,250C111.93,500,0,388.077,0,250C0,111.93,111.93,0,250,0z"
	/>
</g></g><g transform="translate(480,480) scale(0.08,0.08)"><g transform="" style="fill: rgb(255, 255, 255);">
<path d="M250,0c138.077,0,250,111.93,250,250c0,138.077-111.923,250-250,250C111.93,500,0,388.077,0,250C0,111.93,111.93,0,250,0z"
	/>
</g></g><g transform="translate(520,480) scale(0.08,0.08)"><g transform="" style="fill: rgb(255, 255, 255);">
<path d="M250,0c138.077,0,250,111.93,250,250c0,138.077-111.923,250-250,250C111.93,500,0,388.077,0,250C0,111.93,111.93,0,250,0z"
	/>
</g></g><g transform="translate(600,480) scale(0.08,0.08)"><g transform="" style="fill: rgb(255, 255, 255);">
<path d="M250,0c138.077,0,250,111.93,250,250c0,138.077-111.923,250-250,250C111.93,500,0,388.077,0,250C0,111.93,111.93,0,250,0z"
	/>
</g></g><g transform="translate(640,480) scale(0.08,0.08)"><g transform="" style="fill: rgb(255, 255, 255);">
<path d="M250,0c138.077,0,250,111.93,250,250c0,138.077-111.923,250-250,250C111.93,500,0,388.077,0,250C0,111.93,111.93,0,250,0z"
	/>
</g></g><g transform="translate(680,480) scale(0.08,0.08)"><g transform="" style="fill: rgb(255, 255, 255);">
<path d="M250,0c138.077,0,250,111.93,250,250c0,138.077-111.923,250-250,250C111.93,500,0,388.077,0,250C0,111.93,111.93,0,250,0z"
	/>
</g></g><g transform="translate(720,480) scale(0.08,0.08)"><g transform="" style="fill: rgb(255, 255, 255);">
<path d="M250,0c138.077,0,250,111.93,250,250c0,138.077-111.923,250-250,250C111.93,500,0,388.077,0,250C0,111.93,111.93,0,250,0z"
	/>
</g></g><g transform="translate(840,480) scale(0.08,0.08)"><g transform="" style="fill: rgb(255, 255, 255);">
<path d="M250,0c138.077,0,250,111.93,250,250c0,138.077-111.923,250-250,250C111.93,500,0,388.077,0,250C0,111.93,111.93,0,250,0z"
	/>
</g></g><g transform="translate(920,480) scale(0.08,0.08)"><g transform="" style="fill: rgb(255, 255, 255);">
<path d="M250,0c138.077,0,250,111.93,250,250c0,138.077-111.923,250-250,250C111.93,500,0,388.077,0,250C0,111.93,111.93,0,250,0z"
	/>
</g></g><g transform="translate(960,480) scale(0.08,0.08)"><g transform="" style="fill: rgb(255, 255, 255);">
<path d="M250,0c138.077,0,250,111.93,250,250c0,138.077-111.923,250-250,250C111.93,500,0,388.077,0,250C0,111.93,111.93,0,250,0z"
	/>
</g></g><g transform="translate(40,520) scale(0.08,0.08)"><g transform="" style="fill: rgb(255, 255, 255);">
<path d="M250,0c138.077,0,250,111.93,250,250c0,138.077-111.923,250-250,250C111.93,500,0,388.077,0,250C0,111.93,111.93,0,250,0z"
	/>
</g></g><g transform="translate(280,520) scale(0.08,0.08)"><g transform="" style="fill: rgb(255, 255, 255);">
<path d="M250,0c138.077,0,250,111.93,250,250c0,138.077-111.923,250-250,250C111.93,500,0,388.077,0,250C0,111.93,111.93,0,250,0z"
	/>
</g></g><g transform="translate(400,520) scale(0.08,0.08)"><g transform="" style="fill: rgb(255, 255, 255);">
<path d="M250,0c138.077,0,250,111.93,250,250c0,138.077-111.923,250-250,250C111.93,500,0,388.077,0,250C0,111.93,111.93,0,250,0z"
	/>
</g></g><g transform="translate(440,520) scale(0.08,0.08)"><g transform="" style="fill: rgb(255, 255, 255);">
<path d="M250,0c138.077,0,250,111.93,250,250c0,138.077-111.923,250-250,250C111.93,500,0,388.077,0,250C0,111.93,111.93,0,250,0z"
	/>
</g></g><g transform="translate(520,520) scale(0.08,0.08)"><g transform="" style="fill: rgb(255, 255, 255);">
<path d="M250,0c138.077,0,250,111.93,250,250c0,138.077-111.923,250-250,250C111.93,500,0,388.077,0,250C0,111.93,111.93,0,250,0z"
	/>
</g></g><g transform="translate(680,520) scale(0.08,0.08)"><g transform="" style="fill: rgb(255, 255, 255);">
<path d="M250,0c138.077,0,250,111.93,250,250c0,138.077-111.923,250-250,250C111.93,500,0,388.077,0,250C0,111.93,111.93,0,250,0z"
	/>
</g></g><g transform="translate(720,520) scale(0.08,0.08)"><g transform="" style="fill: rgb(255, 255, 255);">
<path d="M250,0c138.077,0,250,111.93,250,250c0,138.077-111.923,250-250,250C111.93,500,0,388.077,0,250C0,111.93,111.93,0,250,0z"
	/>
</g></g><g transform="translate(760,520) scale(0.08,0.08)"><g transform="" style="fill: rgb(255, 255, 255);">
<path d="M250,0c138.077,0,250,111.93,250,250c0,138.077-111.923,250-250,250C111.93,500,0,388.077,0,250C0,111.93,111.93,0,250,0z"
	/>
</g></g><g transform="translate(840,520) scale(0.08,0.08)"><g transform="" style="fill: rgb(255, 255, 255);">
<path d="M250,0c138.077,0,250,111.93,250,250c0,138.077-111.923,250-250,250C111.93,500,0,388.077,0,250C0,111.93,111.93,0,250,0z"
	/>
</g></g><g transform="translate(880,520) scale(0.08,0.08)"><g transform="" style="fill: rgb(255, 255, 255);">
<path d="M250,0c138.077,0,250,111.93,250,250c0,138.077-111.923,250-250,250C111.93,500,0,388.077,0,250C0,111.93,111.93,0,250,0z"
	/>
</g></g><g transform="translate(960,520) scale(0.08,0.08)"><g transform="" style="fill: rgb(255, 255, 255);">
<path d="M250,0c138.077,0,250,111.93,250,250c0,138.077-111.923,250-250,250C111.93,500,0,388.077,0,250C0,111.93,111.93,0,250,0z"
	/>
</g></g><g transform="translate(0,560) scale(0.08,0.08)"><g transform="" style="fill: rgb(255, 255, 255);">
<path d="M250,0c138.077,0,250,111.93,250,250c0,138.077-111.923,250-250,250C111.93,500,0,388.077,0,250C0,111.93,111.93,0,250,0z"
	/>
</g></g><g transform="translate(240,560) scale(0.08,0.08)"><g transform="" style="fill: rgb(255, 255, 255);">
<path d="M250,0c138.077,0,250,111.93,250,250c0,138.077-111.923,250-250,250C111.93,500,0,388.077,0,250C0,111.93,111.93,0,250,0z"
	/>
</g></g><g transform="translate(320,560) scale(0.08,0.08)"><g transform="" style="fill: rgb(255, 255, 255);">
<path d="M250,0c138.077,0,250,111.93,250,250c0,138.077-111.923,250-250,250C111.93,500,0,388.077,0,250C0,111.93,111.93,0,250,0z"
	/>
</g></g><g transform="translate(440,560) scale(0.08,0.08)"><g transform="" style="fill: rgb(255, 255, 255);">
<path d="M250,0c138.077,0,250,111.93,250,250c0,138.077-111.923,250-250,250C111.93,500,0,388.077,0,250C0,111.93,111.93,0,250,0z"
	/>
</g></g><g transform="translate(560,560) scale(0.08,0.08)"><g transform="" style="fill: rgb(255, 255, 255);">
<path d="M250,0c138.077,0,250,111.93,250,250c0,138.077-111.923,250-250,250C111.93,500,0,388.077,0,250C0,111.93,111.93,0,250,0z"
	/>
</g></g><g transform="translate(640,560) scale(0.08,0.08)"><g transform="" style="fill: rgb(255, 255, 255);">
<path d="M250,0c138.077,0,250,111.93,250,250c0,138.077-111.923,250-250,250C111.93,500,0,388.077,0,250C0,111.93,111.93,0,250,0z"
	/>
</g></g><g transform="translate(760,560) scale(0.08,0.08)"><g transform="" style="fill: rgb(255, 255, 255);">
<path d="M250,0c138.077,0,250,111.93,250,250c0,138.077-111.923,250-250,250C111.93,500,0,388.077,0,250C0,111.93,111.93,0,250,0z"
	/>
</g></g><g transform="translate(800,560) scale(0.08,0.08)"><g transform="" style="fill: rgb(255, 255, 255);">
<path d="M250,0c138.077,0,250,111.93,250,250c0,138.077-111.923,250-250,250C111.93,500,0,388.077,0,250C0,111.93,111.93,0,250,0z"
	/>
</g></g><g transform="translate(880,560) scale(0.08,0.08)"><g transform="" style="fill: rgb(255, 255, 255);">
<path d="M250,0c138.077,0,250,111.93,250,250c0,138.077-111.923,250-250,250C111.93,500,0,388.077,0,250C0,111.93,111.93,0,250,0z"
	/>
</g></g><g transform="translate(960,560) scale(0.08,0.08)"><g transform="" style="fill: rgb(255, 255, 255);">
<path d="M250,0c138.077,0,250,111.93,250,250c0,138.077-111.923,250-250,250C111.93,500,0,388.077,0,250C0,111.93,111.93,0,250,0z"
	/>
</g></g><g transform="translate(40,600) scale(0.08,0.08)"><g transform="" style="fill: rgb(255, 255, 255);">
<path d="M250,0c138.077,0,250,111.93,250,250c0,138.077-111.923,250-250,250C111.93,500,0,388.077,0,250C0,111.93,111.93,0,250,0z"
	/>
</g></g><g transform="translate(80,600) scale(0.08,0.08)"><g transform="" style="fill: rgb(255, 255, 255);">
<path d="M250,0c138.077,0,250,111.93,250,250c0,138.077-111.923,250-250,250C111.93,500,0,388.077,0,250C0,111.93,111.93,0,250,0z"
	/>
</g></g><g transform="translate(160,600) scale(0.08,0.08)"><g transform="" style="fill: rgb(255, 255, 255);">
<path d="M250,0c138.077,0,250,111.93,250,250c0,138.077-111.923,250-250,250C111.93,500,0,388.077,0,250C0,111.93,111.93,0,250,0z"
	/>
</g></g><g transform="translate(360,600) scale(0.08,0.08)"><g transform="" style="fill: rgb(255, 255, 255);">
<path d="M250,0c138.077,0,250,111.93,250,250c0,138.077-111.923,250-250,250C111.93,500,0,388.077,0,250C0,111.93,111.93,0,250,0z"
	/>
</g></g><g transform="translate(480,600) scale(0.08,0.08)"><g transform="" style="fill: rgb(255, 255, 255);">
<path d="M250,0c138.077,0,250,111.93,250,250c0,138.077-111.923,250-250,250C111.93,500,0,388.077,0,250C0,111.93,111.93,0,250,0z"
	/>
</g></g><g transform="translate(520,600) scale(0.08,0.08)"><g transform="" style="fill: rgb(255, 255, 255);">
<path d="M250,0c138.077,0,250,111.93,250,250c0,138.077-111.923,250-250,250C111.93,500,0,388.077,0,250C0,111.93,111.93,0,250,0z"
	/>
</g></g><g transform="translate(800,600) scale(0.08,0.08)"><g transform="" style="fill: rgb(255, 255, 255);">
<path d="M250,0c138.077,0,250,111.93,250,250c0,138.077-111.923,250-250,250C111.93,500,0,388.077,0,250C0,111.93,111.93,0,250,0z"
	/>
</g></g><g transform="translate(920,600) scale(0.08,0.08)"><g transform="" style="fill: rgb(255, 255, 255);">
<path d="M250,0c138.077,0,250,111.93,250,250c0,138.077-111.923,250-250,250C111.93,500,0,388.077,0,250C0,111.93,111.93,0,250,0z"
	/>
</g></g><g transform="translate(0,640) scale(0.08,0.08)"><g transform="" style="fill: rgb(255, 255, 255);">
<path d="M250,0c138.077,0,250,111.93,250,250c0,138.077-111.923,250-250,250C111.93,500,0,388.077,0,250C0,111.93,111.93,0,250,0z"
	/>
</g></g><g transform="translate(40,640) scale(0.08,0.08)"><g transform="" style="fill: rgb(255, 255, 255);">
<path d="M250,0c138.077,0,250,111.93,250,250c0,138.077-111.923,250-250,250C111.93,500,0,388.077,0,250C0,111.93,111.93,0,250,0z"
	/>
</g></g><g transform="translate(240,640) scale(0.08,0.08)"><g transform="" style="fill: rgb(255, 255, 255);">
<path d="M250,0c138.077,0,250,111.93,250,250c0,138.077-111.923,250-250,250C111.93,500,0,388.077,0,250C0,111.93,111.93,0,250,0z"
	/>
</g></g><g transform="translate(280,640) scale(0.08,0.08)"><g transform="" style="fill: rgb(255, 255, 255);">
<path d="M250,0c138.077,0,250,111.93,250,250c0,138.077-111.923,250-250,250C111.93,500,0,388.077,0,250C0,111.93,111.93,0,250,0z"
	/>
</g></g><g transform="translate(320,640) scale(0.08,0.08)"><g transform="" style="fill: rgb(255, 255, 255);">
<path d="M250,0c138.077,0,250,111.93,250,250c0,138.077-111.923,250-250,250C111.93,500,0,388.077,0,250C0,111.93,111.93,0,250,0z"
	/>
</g></g><g transform="translate(360,640) scale(0.08,0.08)"><g transform="" style="fill: rgb(255, 255, 255);">
<path d="M250,0c138.077,0,250,111.93,250,250c0,138.077-111.923,250-250,250C111.93,500,0,388.077,0,250C0,111.93,111.93,0,250,0z"
	/>
</g></g><g transform="translate(440,640) scale(0.08,0.08)"><g transform="" style="fill: rgb(255, 255, 255);">
<path d="M250,0c138.077,0,250,111.93,250,250c0,138.077-111.923,250-250,250C111.93,500,0,388.077,0,250C0,111.93,111.93,0,250,0z"
	/>
</g></g><g transform="translate(480,640) scale(0.08,0.08)"><g transform="" style="fill: rgb(255, 255, 255);">
<path d="M250,0c138.077,0,250,111.93,250,250c0,138.077-111.923,250-250,250C111.93,500,0,388.077,0,250C0,111.93,111.93,0,250,0z"
	/>
</g></g><g transform="translate(600,640) scale(0.08,0.08)"><g transform="" style="fill: rgb(255, 255, 255);">
<path d="M250,0c138.077,0,250,111.93,250,250c0,138.077-111.923,250-250,250C111.93,500,0,388.077,0,250C0,111.93,111.93,0,250,0z"
	/>
</g></g><g transform="translate(640,640) scale(0.08,0.08)"><g transform="" style="fill: rgb(255, 255, 255);">
<path d="M250,0c138.077,0,250,111.93,250,250c0,138.077-111.923,250-250,250C111.93,500,0,388.077,0,250C0,111.93,111.93,0,250,0z"
	/>
</g></g><g transform="translate(680,640) scale(0.08,0.08)"><g transform="" style="fill: rgb(255, 255, 255);">
<path d="M250,0c138.077,0,250,111.93,250,250c0,138.077-111.923,250-250,250C111.93,500,0,388.077,0,250C0,111.93,111.93,0,250,0z"
	/>
</g></g><g transform="translate(720,640) scale(0.08,0.08)"><g transform="" style="fill: rgb(255, 255, 255);">
<path d="M250,0c138.077,0,250,111.93,250,250c0,138.077-111.923,250-250,250C111.93,500,0,388.077,0,250C0,111.93,111.93,0,250,0z"
	/>
</g></g><g transform="translate(760,640) scale(0.08,0.08)"><g transform="" style="fill: rgb(255, 255, 255);">
<path d="M250,0c138.077,0,250,111.93,250,250c0,138.077-111.923,250-250,250C111.93,500,0,388.077,0,250C0,111.93,111.93,0,250,0z"
	/>
</g></g><g transform="translate(800,640) scale(0.08,0.08)"><g transform="" style="fill: rgb(255, 255, 255);">
<path d="M250,0c138.077,0,250,111.93,250,250c0,138.077-111.923,250-250,250C111.93,500,0,388.077,0,250C0,111.93,111.93,0,250,0z"
	/>
</g></g><g transform="translate(840,640) scale(0.08,0.08)"><g transform="" style="fill: rgb(255, 255, 255);">
<path d="M250,0c138.077,0,250,111.93,250,250c0,138.077-111.923,250-250,250C111.93,500,0,388.077,0,250C0,111.93,111.93,0,250,0z"
	/>
</g></g><g transform="translate(880,640) scale(0.08,0.08)"><g transform="" style="fill: rgb(255, 255, 255);">
<path d="M250,0c138.077,0,250,111.93,250,250c0,138.077-111.923,250-250,250C111.93,500,0,388.077,0,250C0,111.93,111.93,0,250,0z"
	/>
</g></g><g transform="translate(320,680) scale(0.08,0.08)"><g transform="" style="fill: rgb(255, 255, 255);">
<path d="M250,0c138.077,0,250,111.93,250,250c0,138.077-111.923,250-250,250C111.93,500,0,388.077,0,250C0,111.93,111.93,0,250,0z"
	/>
</g></g><g transform="translate(400,680) scale(0.08,0.08)"><g transform="" style="fill: rgb(255, 255, 255);">
<path d="M250,0c138.077,0,250,111.93,250,250c0,138.077-111.923,250-250,250C111.93,500,0,388.077,0,250C0,111.93,111.93,0,250,0z"
	/>
</g></g><g transform="translate(440,680) scale(0.08,0.08)"><g transform="" style="fill: rgb(255, 255, 255);">
<path d="M250,0c138.077,0,250,111.93,250,250c0,138.077-111.923,250-250,250C111.93,500,0,388.077,0,250C0,111.93,111.93,0,250,0z"
	/>
</g></g><g transform="translate(480,680) scale(0.08,0.08)"><g transform="" style="fill: rgb(255, 255, 255);">
<path d="M250,0c138.077,0,250,111.93,250,250c0,138.077-111.923,250-250,250C111.93,500,0,388.077,0,250C0,111.93,111.93,0,250,0z"
	/>
</g></g><g transform="translate(560,680) scale(0.08,0.08)"><g transform="" style="fill: rgb(255, 255, 255);">
<path d="M250,0c138.077,0,250,111.93,250,250c0,138.077-111.923,250-250,250C111.93,500,0,388.077,0,250C0,111.93,111.93,0,250,0z"
	/>
</g></g><g transform="translate(600,680) scale(0.08,0.08)"><g transform="" style="fill: rgb(255, 255, 255);">
<path d="M250,0c138.077,0,250,111.93,250,250c0,138.077-111.923,250-250,250C111.93,500,0,388.077,0,250C0,111.93,111.93,0,250,0z"
	/>
</g></g><g transform="translate(640,680) scale(0.08,0.08)"><g transform="" style="fill: rgb(255, 255, 255);">
<path d="M250,0c138.077,0,250,111.93,250,250c0,138.077-111.923,250-250,250C111.93,500,0,388.077,0,250C0,111.93,111.93,0,250,0z"
	/>
</g></g><g transform="translate(800,680) scale(0.08,0.08)"><g transform="" style="fill: rgb(255, 255, 255);">
<path d="M250,0c138.077,0,250,111.93,250,250c0,138.077-111.923,250-250,250C111.93,500,0,388.077,0,250C0,111.93,111.93,0,250,0z"
	/>
</g></g><g transform="translate(840,680) scale(0.08,0.08)"><g transform="" style="fill: rgb(255, 255, 255);">
<path d="M250,0c138.077,0,250,111.93,250,250c0,138.077-111.923,250-250,250C111.93,500,0,388.077,0,250C0,111.93,111.93,0,250,0z"
	/>
</g></g><g transform="translate(960,680) scale(0.08,0.08)"><g transform="" style="fill: rgb(255, 255, 255);">
<path d="M250,0c138.077,0,250,111.93,250,250c0,138.077-111.923,250-250,250C111.93,500,0,388.077,0,250C0,111.93,111.93,0,250,0z"
	/>
</g></g><g transform="translate(360,720) scale(0.08,0.08)"><g transform="" style="fill: rgb(255, 255, 255);">
<path d="M250,0c138.077,0,250,111.93,250,250c0,138.077-111.923,250-250,250C111.93,500,0,388.077,0,250C0,111.93,111.93,0,250,0z"
	/>
</g></g><g transform="translate(400,720) scale(0.08,0.08)"><g transform="" style="fill: rgb(255, 255, 255);">
<path d="M250,0c138.077,0,250,111.93,250,250c0,138.077-111.923,250-250,250C111.93,500,0,388.077,0,250C0,111.93,111.93,0,250,0z"
	/>
</g></g><g transform="translate(480,720) scale(0.08,0.08)"><g transform="" style="fill: rgb(255, 255, 255);">
<path d="M250,0c138.077,0,250,111.93,250,250c0,138.077-111.923,250-250,250C111.93,500,0,388.077,0,250C0,111.93,111.93,0,250,0z"
	/>
</g></g><g transform="translate(560,720) scale(0.08,0.08)"><g transform="" style="fill: rgb(255, 255, 255);">
<path d="M250,0c138.077,0,250,111.93,250,250c0,138.077-111.923,250-250,250C111.93,500,0,388.077,0,250C0,111.93,111.93,0,250,0z"
	/>
</g></g><g transform="translate(600,720) scale(0.08,0.08)"><g transform="" style="fill: rgb(255, 255, 255);">
<path d="M250,0c138.077,0,250,111.93,250,250c0,138.077-111.923,250-250,250C111.93,500,0,388.077,0,250C0,111.93,111.93,0,250,0z"
	/>
</g></g><g transform="translate(640,720) scale(0.08,0.08)"><g transform="" style="fill: rgb(255, 255, 255);">
<path d="M250,0c138.077,0,250,111.93,250,250c0,138.077-111.923,250-250,250C111.93,500,0,388.077,0,250C0,111.93,111.93,0,250,0z"
	/>
</g></g><g transform="translate(720,720) scale(0.08,0.08)"><g transform="" style="fill: rgb(255, 255, 255);">
<path d="M250,0c138.077,0,250,111.93,250,250c0,138.077-111.923,250-250,250C111.93,500,0,388.077,0,250C0,111.93,111.93,0,250,0z"
	/>
</g></g><g transform="translate(800,720) scale(0.08,0.08)"><g transform="" style="fill: rgb(255, 255, 255);">
<path d="M250,0c138.077,0,250,111.93,250,250c0,138.077-111.923,250-250,250C111.93,500,0,388.077,0,250C0,111.93,111.93,0,250,0z"
	/>
</g></g><g transform="translate(840,720) scale(0.08,0.08)"><g transform="" style="fill: rgb(255, 255, 255);">
<path d="M250,0c138.077,0,250,111.93,250,250c0,138.077-111.923,250-250,250C111.93,500,0,388.077,0,250C0,111.93,111.93,0,250,0z"
	/>
</g></g><g transform="translate(920,720) scale(0.08,0.08)"><g transform="" style="fill: rgb(255, 255, 255);">
<path d="M250,0c138.077,0,250,111.93,250,250c0,138.077-111.923,250-250,250C111.93,500,0,388.077,0,250C0,111.93,111.93,0,250,0z"
	/>
</g></g><g transform="translate(960,720) scale(0.08,0.08)"><g transform="" style="fill: rgb(255, 255, 255);">
<path d="M250,0c138.077,0,250,111.93,250,250c0,138.077-111.923,250-250,250C111.93,500,0,388.077,0,250C0,111.93,111.93,0,250,0z"
	/>
</g></g><g transform="translate(320,760) scale(0.08,0.08)"><g transform="" style="fill: rgb(255, 255, 255);">
<path d="M250,0c138.077,0,250,111.93,250,250c0,138.077-111.923,250-250,250C111.93,500,0,388.077,0,250C0,111.93,111.93,0,250,0z"
	/>
</g></g><g transform="translate(400,760) scale(0.08,0.08)"><g transform="" style="fill: rgb(255, 255, 255);">
<path d="M250,0c138.077,0,250,111.93,250,250c0,138.077-111.923,250-250,250C111.93,500,0,388.077,0,250C0,111.93,111.93,0,250,0z"
	/>
</g></g><g transform="translate(560,760) scale(0.08,0.08)"><g transform="" style="fill: rgb(255, 255, 255);">
<path d="M250,0c138.077,0,250,111.93,250,250c0,138.077-111.923,250-250,250C111.93,500,0,388.077,0,250C0,111.93,111.93,0,250,0z"
	/>
</g></g><g transform="translate(640,760) scale(0.08,0.08)"><g transform="" style="fill: rgb(255, 255, 255);">
<path d="M250,0c138.077,0,250,111.93,250,250c0,138.077-111.923,250-250,250C111.93,500,0,388.077,0,250C0,111.93,111.93,0,250,0z"
	/>
</g></g><g transform="translate(800,760) scale(0.08,0.08)"><g transform="" style="fill: rgb(255, 255, 255);">
<path d="M250,0c138.077,0,250,111.93,250,250c0,138.077-111.923,250-250,250C111.93,500,0,388.077,0,250C0,111.93,111.93,0,250,0z"
	/>
</g></g><g transform="translate(840,760) scale(0.08,0.08)"><g transform="" style="fill: rgb(255, 255, 255);">
<path d="M250,0c138.077,0,250,111.93,250,250c0,138.077-111.923,250-250,250C111.93,500,0,388.077,0,250C0,111.93,111.93,0,250,0z"
	/>
</g></g><g transform="translate(880,760) scale(0.08,0.08)"><g transform="" style="fill: rgb(255, 255, 255);">
<path d="M250,0c138.077,0,250,111.93,250,250c0,138.077-111.923,250-250,250C111.93,500,0,388.077,0,250C0,111.93,111.93,0,250,0z"
	/>
</g></g><g transform="translate(920,760) scale(0.08,0.08)"><g transform="" style="fill: rgb(255, 255, 255);">
<path d="M250,0c138.077,0,250,111.93,250,250c0,138.077-111.923,250-250,250C111.93,500,0,388.077,0,250C0,111.93,111.93,0,250,0z"
	/>
</g></g><g transform="translate(960,760) scale(0.08,0.08)"><g transform="" style="fill: rgb(255, 255, 255);">
<path d="M250,0c138.077,0,250,111.93,250,250c0,138.077-111.923,250-250,250C111.93,500,0,388.077,0,250C0,111.93,111.93,0,250,0z"
	/>
</g></g><g transform="translate(440,800) scale(0.08,0.08)"><g transform="" style="fill: rgb(255, 255, 255);">
<path d="M250,0c138.077,0,250,111.93,250,250c0,138.077-111.923,250-250,250C111.93,500,0,388.077,0,250C0,111.93,111.93,0,250,0z"
	/>
</g></g><g transform="translate(520,800) scale(0.08,0.08)"><g transform="" style="fill: rgb(255, 255, 255);">
<path d="M250,0c138.077,0,250,111.93,250,250c0,138.077-111.923,250-250,250C111.93,500,0,388.077,0,250C0,111.93,111.93,0,250,0z"
	/>
</g></g><g transform="translate(560,800) scale(0.08,0.08)"><g transform="" style="fill: rgb(255, 255, 255);">
<path d="M250,0c138.077,0,250,111.93,250,250c0,138.077-111.923,250-250,250C111.93,500,0,388.077,0,250C0,111.93,111.93,0,250,0z"
	/>
</g></g><g transform="translate(640,800) scale(0.08,0.08)"><g transform="" style="fill: rgb(255, 255, 255);">
<path d="M250,0c138.077,0,250,111.93,250,250c0,138.077-111.923,250-250,250C111.93,500,0,388.077,0,250C0,111.93,111.93,0,250,0z"
	/>
</g></g><g transform="translate(680,800) scale(0.08,0.08)"><g transform="" style="fill: rgb(255, 255, 255);">
<path d="M250,0c138.077,0,250,111.93,250,250c0,138.077-111.923,250-250,250C111.93,500,0,388.077,0,250C0,111.93,111.93,0,250,0z"
	/>
</g></g><g transform="translate(720,800) scale(0.08,0.08)"><g transform="" style="fill: rgb(255, 255, 255);">
<path d="M250,0c138.077,0,250,111.93,250,250c0,138.077-111.923,250-250,250C111.93,500,0,388.077,0,250C0,111.93,111.93,0,250,0z"
	/>
</g></g><g transform="translate(760,800) scale(0.08,0.08)"><g transform="" style="fill: rgb(255, 255, 255);">
<path d="M250,0c138.077,0,250,111.93,250,250c0,138.077-111.923,250-250,250C111.93,500,0,388.077,0,250C0,111.93,111.93,0,250,0z"
	/>
</g></g><g transform="translate(800,800) scale(0.08,0.08)"><g transform="" style="fill: rgb(255, 255, 255);">
<path d="M250,0c138.077,0,250,111.93,250,250c0,138.077-111.923,250-250,250C111.93,500,0,388.077,0,250C0,111.93,111.93,0,250,0z"
	/>
</g></g><g transform="translate(840,800) scale(0.08,0.08)"><g transform="" style="fill: rgb(255, 255, 255);">
<path d="M250,0c138.077,0,250,111.93,250,250c0,138.077-111.923,250-250,250C111.93,500,0,388.077,0,250C0,111.93,111.93,0,250,0z"
	/>
</g></g><g transform="translate(920,800) scale(0.08,0.08)"><g transform="" style="fill: rgb(255, 255, 255);">
<path d="M250,0c138.077,0,250,111.93,250,250c0,138.077-111.923,250-250,250C111.93,500,0,388.077,0,250C0,111.93,111.93,0,250,0z"
	/>
</g></g><g transform="translate(320,840) scale(0.08,0.08)"><g transform="" style="fill: rgb(255, 255, 255);">
<path d="M250,0c138.077,0,250,111.93,250,250c0,138.077-111.923,250-250,250C111.93,500,0,388.077,0,250C0,111.93,111.93,0,250,0z"
	/>
</g></g><g transform="translate(360,840) scale(0.08,0.08)"><g transform="" style="fill: rgb(255, 255, 255);">
<path d="M250,0c138.077,0,250,111.93,250,250c0,138.077-111.923,250-250,250C111.93,500,0,388.077,0,250C0,111.93,111.93,0,250,0z"
	/>
</g></g><g transform="translate(400,840) scale(0.08,0.08)"><g transform="" style="fill: rgb(255, 255, 255);">
<path d="M250,0c138.077,0,250,111.93,250,250c0,138.077-111.923,250-250,250C111.93,500,0,388.077,0,250C0,111.93,111.93,0,250,0z"
	/>
</g></g><g transform="translate(480,840) scale(0.08,0.08)"><g transform="" style="fill: rgb(255, 255, 255);">
<path d="M250,0c138.077,0,250,111.93,250,250c0,138.077-111.923,250-250,250C111.93,500,0,388.077,0,250C0,111.93,111.93,0,250,0z"
	/>
</g></g><g transform="translate(640,840) scale(0.08,0.08)"><g transform="" style="fill: rgb(255, 255, 255);">
<path d="M250,0c138.077,0,250,111.93,250,250c0,138.077-111.923,250-250,250C111.93,500,0,388.077,0,250C0,111.93,111.93,0,250,0z"
	/>
</g></g><g transform="translate(760,840) scale(0.08,0.08)"><g transform="" style="fill: rgb(255, 255, 255);">
<path d="M250,0c138.077,0,250,111.93,250,250c0,138.077-111.923,250-250,250C111.93,500,0,388.077,0,250C0,111.93,111.93,0,250,0z"
	/>
</g></g><g transform="translate(800,840) scale(0.08,0.08)"><g transform="" style="fill: rgb(255, 255, 255);">
<path d="M250,0c138.077,0,250,111.93,250,250c0,138.077-111.923,250-250,250C111.93,500,0,388.077,0,250C0,111.93,111.93,0,250,0z"
	/>
</g></g><g transform="translate(840,840) scale(0.08,0.08)"><g transform="" style="fill: rgb(255, 255, 255);">
<path d="M250,0c138.077,0,250,111.93,250,250c0,138.077-111.923,250-250,250C111.93,500,0,388.077,0,250C0,111.93,111.93,0,250,0z"
	/>
</g></g><g transform="translate(880,840) scale(0.08,0.08)"><g transform="" style="fill: rgb(255, 255, 255);">
<path d="M250,0c138.077,0,250,111.93,250,250c0,138.077-111.923,250-250,250C111.93,500,0,388.077,0,250C0,111.93,111.93,0,250,0z"
	/>
</g></g><g transform="translate(400,880) scale(0.08,0.08)"><g transform="" style="fill: rgb(255, 255, 255);">
<path d="M250,0c138.077,0,250,111.93,250,250c0,138.077-111.923,250-250,250C111.93,500,0,388.077,0,250C0,111.93,111.93,0,250,0z"
	/>
</g></g><g transform="translate(600,880) scale(0.08,0.08)"><g transform="" style="fill: rgb(255, 255, 255);">
<path d="M250,0c138.077,0,250,111.93,250,250c0,138.077-111.923,250-250,250C111.93,500,0,388.077,0,250C0,111.93,111.93,0,250,0z"
	/>
</g></g><g transform="translate(640,880) scale(0.08,0.08)"><g transform="" style="fill: rgb(255, 255, 255);">
<path d="M250,0c138.077,0,250,111.93,250,250c0,138.077-111.923,250-250,250C111.93,500,0,388.077,0,250C0,111.93,111.93,0,250,0z"
	/>
</g></g><g transform="translate(760,880) scale(0.08,0.08)"><g transform="" style="fill: rgb(255, 255, 255);">
<path d="M250,0c138.077,0,250,111.93,250,250c0,138.077-111.923,250-250,250C111.93,500,0,388.077,0,250C0,111.93,111.93,0,250,0z"
	/>
</g></g><g transform="translate(800,880) scale(0.08,0.08)"><g transform="" style="fill: rgb(255, 255, 255);">
<path d="M250,0c138.077,0,250,111.93,250,250c0,138.077-111.923,250-250,250C111.93,500,0,388.077,0,250C0,111.93,111.93,0,250,0z"
	/>
</g></g><g transform="translate(880,880) scale(0.08,0.08)"><g transform="" style="fill: rgb(255, 255, 255);">
<path d="M250,0c138.077,0,250,111.93,250,250c0,138.077-111.923,250-250,250C111.93,500,0,388.077,0,250C0,111.93,111.93,0,250,0z"
	/>
</g></g><g transform="translate(960,880) scale(0.08,0.08)"><g transform="" style="fill: rgb(255, 255, 255);">
<path d="M250,0c138.077,0,250,111.93,250,250c0,138.077-111.923,250-250,250C111.93,500,0,388.077,0,250C0,111.93,111.93,0,250,0z"
	/>
</g></g><g transform="translate(360,920) scale(0.08,0.08)"><g transform="" style="fill: rgb(255, 255, 255);">
<path d="M250,0c138.077,0,250,111.93,250,250c0,138.077-111.923,250-250,250C111.93,500,0,388.077,0,250C0,111.93,111.93,0,250,0z"
	/>
</g></g><g transform="translate(400,920) scale(0.08,0.08)"><g transform="" style="fill: rgb(255, 255, 255);">
<path d="M250,0c138.077,0,250,111.93,250,250c0,138.077-111.923,250-250,250C111.93,500,0,388.077,0,250C0,111.93,111.93,0,250,0z"
	/>
</g></g><g transform="translate(480,920) scale(0.08,0.08)"><g transform="" style="fill: rgb(255, 255, 255);">
<path d="M250,0c138.077,0,250,111.93,250,250c0,138.077-111.923,250-250,250C111.93,500,0,388.077,0,250C0,111.93,111.93,0,250,0z"
	/>
</g></g><g transform="translate(520,920) scale(0.08,0.08)"><g transform="" style="fill: rgb(255, 255, 255);">
<path d="M250,0c138.077,0,250,111.93,250,250c0,138.077-111.923,250-250,250C111.93,500,0,388.077,0,250C0,111.93,111.93,0,250,0z"
	/>
</g></g><g transform="translate(560,920) scale(0.08,0.08)"><g transform="" style="fill: rgb(255, 255, 255);">
<path d="M250,0c138.077,0,250,111.93,250,250c0,138.077-111.923,250-250,250C111.93,500,0,388.077,0,250C0,111.93,111.93,0,250,0z"
	/>
</g></g><g transform="translate(600,920) scale(0.08,0.08)"><g transform="" style="fill: rgb(255, 255, 255);">
<path d="M250,0c138.077,0,250,111.93,250,250c0,138.077-111.923,250-250,250C111.93,500,0,388.077,0,250C0,111.93,111.93,0,250,0z"
	/>
</g></g><g transform="translate(640,920) scale(0.08,0.08)"><g transform="" style="fill: rgb(255, 255, 255);">
<path d="M250,0c138.077,0,250,111.93,250,250c0,138.077-111.923,250-250,250C111.93,500,0,388.077,0,250C0,111.93,111.93,0,250,0z"
	/>
</g></g><g transform="translate(680,920) scale(0.08,0.08)"><g transform="" style="fill: rgb(255, 255, 255);">
<path d="M250,0c138.077,0,250,111.93,250,250c0,138.077-111.923,250-250,250C111.93,500,0,388.077,0,250C0,111.93,111.93,0,250,0z"
	/>
</g></g><g transform="translate(840,920) scale(0.08,0.08)"><g transform="" style="fill: rgb(255, 255, 255);">
<path d="M250,0c138.077,0,250,111.93,250,250c0,138.077-111.923,250-250,250C111.93,500,0,388.077,0,250C0,111.93,111.93,0,250,0z"
	/>
</g></g><g transform="translate(320,960) scale(0.08,0.08)"><g transform="" style="fill: rgb(255, 255, 255);">
<path d="M250,0c138.077,0,250,111.93,250,250c0,138.077-111.923,250-250,250C111.93,500,0,388.077,0,250C0,111.93,111.93,0,250,0z"
	/>
</g></g><g transform="translate(480,960) scale(0.08,0.08)"><g transform="" style="fill: rgb(255, 255, 255);">
<path d="M250,0c138.077,0,250,111.93,250,250c0,138.077-111.923,250-250,250C111.93,500,0,388.077,0,250C0,111.93,111.93,0,250,0z"
	/>
</g></g><g transform="translate(520,960) scale(0.08,0.08)"><g transform="" style="fill: rgb(255, 255, 255);">
<path d="M250,0c138.077,0,250,111.93,250,250c0,138.077-111.923,250-250,250C111.93,500,0,388.077,0,250C0,111.93,111.93,0,250,0z"
	/>
</g></g><g transform="translate(640,960) scale(0.08,0.08)"><g transform="" style="fill: rgb(255, 255, 255);">
<path d="M250,0c138.077,0,250,111.93,250,250c0,138.077-111.923,250-250,250C111.93,500,0,388.077,0,250C0,111.93,111.93,0,250,0z"
	/>
</g></g><g transform="translate(680,960) scale(0.08,0.08)"><g transform="" style="fill: rgb(255, 255, 255);">
<path d="M250,0c138.077,0,250,111.93,250,250c0,138.077-111.923,250-250,250C111.93,500,0,388.077,0,250C0,111.93,111.93,0,250,0z"
	/>
</g></g><g transform="translate(720,960) scale(0.08,0.08)"><g transform="" style="fill: rgb(255, 255, 255);">
<path d="M250,0c138.077,0,250,111.93,250,250c0,138.077-111.923,250-250,250C111.93,500,0,388.077,0,250C0,111.93,111.93,0,250,0z"
	/>
</g></g><g transform="translate(760,960) scale(0.08,0.08)"><g transform="" style="fill: rgb(255, 255, 255);">
<path d="M250,0c138.077,0,250,111.93,250,250c0,138.077-111.923,250-250,250C111.93,500,0,388.077,0,250C0,111.93,111.93,0,250,0z"
	/>
</g></g><g transform="translate(920,960) scale(0.08,0.08)"><g transform="" style="fill: rgb(255, 255, 255);">
<path d="M250,0c138.077,0,250,111.93,250,250c0,138.077-111.923,250-250,250C111.93,500,0,388.077,0,250C0,111.93,111.93,0,250,0z"
	/>
</g></g><g transform="translate(960,960) scale(0.08,0.08)"><g transform="" style="fill: rgb(255, 255, 255);">
<path d="M250,0c138.077,0,250,111.93,250,250c0,138.077-111.923,250-250,250C111.93,500,0,388.077,0,250C0,111.93,111.93,0,250,0z"
	/>
</g></g><g transform="translate(0,0) scale(2.7450980392157, 2.7450980392157)"><g transform="" style="fill: rgb(255, 255, 255);">
<g>
	<path style="fill:none;" d="M51,16c-19.299,0-35,15.701-35,35s15.701,35,35,35s35-15.701,35-35S70.299,16,51,16z"/>
	<path d="M51,1C23.387,1,1,23.387,1,51s22.387,50,50,50s50-22.387,50-50S78.613,1,51,1z M51,86c-19.299,0-35-15.701-35-35
		s15.701-35,35-35s35,15.701,35,35S70.299,86,51,86z"/>
</g>
</g></g><g transform="translate(720,0) scale(2.7450980392157, 2.7450980392157)"><g transform="" style="fill: rgb(255, 255, 255);">
<g>
	<path style="fill:none;" d="M51,16c-19.299,0-35,15.701-35,35s15.701,35,35,35s35-15.701,35-35S70.299,16,51,16z"/>
	<path d="M51,1C23.387,1,1,23.387,1,51s22.387,50,50,50s50-22.387,50-50S78.613,1,51,1z M51,86c-19.299,0-35-15.701-35-35
		s15.701-35,35-35s35,15.701,35,35S70.299,86,51,86z"/>
</g>
</g></g><g transform="translate(0,720) scale(2.7450980392157, 2.7450980392157)"><g transform="" style="fill: rgb(255, 255, 255);">
<g>
	<path style="fill:none;" d="M51,16c-19.299,0-35,15.701-35,35s15.701,35,35,35s35-15.701,35-35S70.299,16,51,16z"/>
	<path d="M51,1C23.387,1,1,23.387,1,51s22.387,50,50,50s50-22.387,50-50S78.613,1,51,1z M51,86c-19.299,0-35-15.701-35-35
		s15.701-35,35-35s35,15.701,35,35S70.299,86,51,86z"/>
</g>
</g></g><g transform="translate(80,80) scale(1.1764705882353, 1.1764705882353)"><g transform="" style="fill: rgb(255, 255, 255);">
<circle cx="50" cy="50" r="50"/>
</g></g><g transform="translate(800,80) scale(1.1764705882353, 1.1764705882353)"><g transform="" style="fill: rgb(255, 255, 255);">
<circle cx="50" cy="50" r="50"/>
</g></g><g transform="translate(80,800) scale(1.1764705882353, 1.1764705882353)"><g transform="" style="fill: rgb(255, 255, 255);">
<circle cx="50" cy="50" r="50"/>
</g></g></g></svg>