<svg version="1.2" xmlns="http://www.w3.org/2000/svg" viewBox="0 0 468 734" width="468" height="734"><style>.a{fill:#0f1729}</style><filter id="f0"><feFlood flood-color="#ffffff" flood-opacity="1" /><feBlend mode="normal" in2="SourceGraphic"/><feComposite in2="SourceAlpha" operator="in" /></filter><g filter="url(#f0)"><path class="a" d="m267.3 600.3c0 18.4-14.9 33.4-33.3 33.4-18.4 0-33.3-15-33.3-33.4 0-18.4 14.9-33.3 33.3-33.3 18.4 0 33.3 14.9 33.3 33.3z"/><path fill-rule="evenodd" class="a" d="m141.8 0.3h1.6q0.4 0 0.8 0h179.6q0.4 0 0.8 0h1.6q1.2 0 2.3 0h5.5q0.8 0 1.6 0.1c2.9 0 5.5 0.1 7.9 0.3 66.1 4.7 118.8 57.3 123.5 123.5 0.3 4.8 0.3 10.1 0.3 17.3v399.2c0 27.3 0 49.8-1.5 68.2-1.6 19-5 36.5-13.5 52.9-12.6 24.4-32.5 44.2-56.8 56.9-16.4 8.5-33.9 11.9-53 13.4-18.3 1.6-40.8 1.6-68.1 1.6h-80.8c-27.3 0-49.8 0-68.1-1.6-19.1-1.5-36.6-4.9-53-13.4-24.3-12.7-44.2-32.5-56.8-56.9-8.5-16.4-11.9-33.9-13.5-52.9-1.5-18.4-1.5-40.9-1.5-68.2v-399.2c0-7.2 0-12.5 0.3-17.3 4.7-66.2 57.4-118.8 123.5-123.5 2.4-0.2 5-0.3 7.9-0.3q0.8-0.1 1.6-0.1h5.5q1.1 0 2.3 0zm1.3 66.7c-9 0-11.8 0-13.8 0.2-33.1 2.3-59.4 28.6-61.8 61.7-0.1 2.1-0.2 4.8-0.2 13.8v396.6c0 29.1 0.1 48.8 1.3 64.1 1.3 14.8 3.5 22.4 6.2 27.7 6.4 12.1 16.3 22.1 28.5 28.4 5.3 2.7 12.8 5 27.7 6.2 15.2 1.3 35 1.3 64 1.3h78c29 0 48.8 0 64-1.3 14.9-1.2 22.4-3.5 27.7-6.2 12.2-6.3 22.1-16.3 28.5-28.4 2.7-5.3 4.9-12.9 6.2-27.7 1.2-15.3 1.3-35 1.3-64.1v-396.6c0-9-0.1-11.7-0.2-13.8-2.4-33.1-28.7-59.4-61.8-61.7-2-0.2-4.8-0.2-13.7-0.2-2.3 0-2.5 0-2.7 0-4.3 0.2-8.3 2-11.3 5.1-0.1 0.1-0.3 0.3-1.8 1.9l-16.3 18.1-0.4 0.5c-0.2 0.2-0.6 0.6-1.1 1.1-1 1-2.9 2.8-5.6 4.6-3.1 2.1-6.7 3.6-10.4 4.6-3 0.8-5.6 1-7.1 1.1-0.7 0-1.3 0-1.5 0h-0.7-64.2-0.7c-0.2 0-0.8 0-1.5 0-1.5-0.1-4.1-0.3-7.1-1.1-3.7-1-7.3-2.5-10.4-4.6-2.7-1.8-4.6-3.6-5.6-4.6-0.5-0.5-0.9-0.9-1.1-1.1l-0.4-0.5-16.3-18.1c-1.5-1.6-1.7-1.8-1.8-1.9-3-3.1-7-4.9-11.3-5.1-0.2 0-0.4 0-2.6 0z"/></g></svg>