<svg version="1.2" xmlns="http://www.w3.org/2000/svg" viewBox="0 0 100 100" width="100" height="100"><style>.a{fill:none;stroke:#33363f;stroke-linecap:round;stroke-width:10.5}</style><filter id="f0"><feFlood flood-color="#ffffff" flood-opacity="1" /><feBlend mode="normal" in2="SourceGraphic"/><feComposite in2="SourceAlpha" operator="in" /></filter><g filter="url(#f0)"><path class="a" d="m10.5 29l26.3 42"/><path class="a" d="m82.7 94.7c7.8-13.6 11.9-29 11.9-44.7 0-15.7-4.1-31.1-11.9-44.7"/><path class="a" d="m59.9 81.5c5.5-9.5 8.4-20.4 8.4-31.5 0-11.1-2.9-22-8.4-31.5"/><path class="a" d="m36.4 71c3.7-6.4 5.7-13.6 5.7-21 0-7.4-2-14.6-5.7-21"/><path class="a" d="m10.9 71c-3.7-6.4-5.6-13.6-5.6-21 0-7.4 1.9-14.6 5.6-21"/></g></svg>