<svg version="1.2" xmlns="http://www.w3.org/2000/svg" viewBox="0 0 535 641" width="535" height="641"><style></style><filter id="f0"><feFlood flood-color="#ffffff" flood-opacity="1" /><feBlend mode="normal" in2="SourceGraphic"/><feComposite in2="SourceAlpha" operator="in" /></filter><g filter="url(#f0)"><path  d="m144.6 538.2l-0.4 2.4c-0.6 3.4-1.8 6.7-3.5 9.8-1.8 3-4 5.7-6.7 8-2.7 2.2-5.8 4-9.1 5.2-3.3 1.2-6.7 1.8-10.2 1.8h-84.4c-4.3 0-8.6-1-12.5-2.8-3.9-1.8-7.4-4.5-10.2-7.8-2.8-3.3-4.8-7.1-6-11.3-1.1-4.2-1.3-8.5-0.6-12.8l85-505.2c0.6-3.4 1.8-6.8 3.5-9.8 1.7-3 4-5.7 6.6-8 2.7-2.2 5.7-4 9-5.2 3.3-1.2 6.7-1.8 10.2-1.8h230.7c18.1 0 36.1 3.5 52.8 10.5 16.8 6.9 32 17.1 44.8 29.9 12.8 12.8 23 28 30 44.8 6.9 16.7 10.5 34.7 10.5 52.8 0 9.1-0.6 18-1.7 26.8 7.9 5.6 15 12.1 21.3 19.3 6.4 7.3 11.8 15.3 16.2 23.9 4.4 8.5 7.8 17.6 10.1 26.9 2.3 9.4 3.4 19 3.4 28.6 0 25.1-4.9 49.9-14.5 73-9.6 23.1-23.6 44.2-41.3 61.9-17.7 17.7-38.8 31.7-61.9 41.3-23.1 9.6-47.9 14.6-73 14.6h-19.4c-21.8 0-40.4 15.7-44 37.2l-10.5 62.3 10.5-62.3c0.9-5.2 2.6-10.1 5.2-14.7 2.6-4.5 6-8.6 10-12 4-3.4 8.5-6 13.5-7.8 4.9-1.8 10.1-2.7 15.3-2.7h19.4c25 0 49.8-5 73-14.6 23.1-9.5 44.2-23.6 61.9-41.3 17.7-17.7 31.7-38.7 41.3-61.9 9.6-23.1 14.5-47.9 14.5-73 0-9.6-1.1-19.2-3.4-28.6-2.3-9.3-5.6-18.4-10.1-26.9-4.4-8.6-9.8-16.6-16.1-23.9-6.3-7.2-13.5-13.7-21.4-19.3-3.2 26.1-11.2 51.4-23.4 74.6-12.3 23.2-28.7 44.1-48.3 61.5-19.7 17.4-42.4 31.1-67 40.4-24.6 9.3-50.7 14-76.9 14h-64.5c-3.4 0-6.9 0.6-10.2 1.7-3.3 1.1-6.4 2.7-9.2 4.8-2.7 2.1-5.2 4.7-7.1 7.5-2 2.9-3.5 6.1-4.5 9.4l-38.5 228.7c-2.6 16 9.7 30.6 25.9 30.6h73.8c3 0 6.1-0.6 9-1.6 2.9-1.1 5.5-2.6 7.9-4.6 2.3-2 4.3-4.4 5.8-7.1 1.5-2.6 2.6-5.5 3.1-8.6l10.5-62.3-10.5 62.3c-0.5 3.1-1.6 6-3.1 8.6-1.5 2.7-3.5 5.1-5.8 7.1-2.4 2-5 3.5-7.9 4.6-2.9 1-6 1.6-9 1.6h-73.8q-2.9 0-5.6-0.6-2.8-0.6-5.4-1.8-2.6-1.3-4.9-3-2.3-1.7-4.1-3.9-1.8-2.2-3.2-4.7-1.3-2.5-2.1-5.3-0.7-2.7-0.9-5.6-0.1-2.8 0.4-5.7z"/><path  d="m515.3 200.5c12.2 18.9 19.3 41.4 19.3 65.6 0 25-4.9 49.8-14.5 73-9.6 23.1-23.7 44.1-41.4 61.8-17.7 17.7-38.7 31.8-61.8 41.4-23.2 9.6-48 14.5-73 14.5h-19.4c-21.8 0-40.4 15.7-44 37.2l-21 124.7c-0.5 3-1.6 5.9-3.1 8.6-1.5 2.6-3.5 5-5.8 7-2.4 2-5 3.5-7.9 4.6-2.9 1.1-5.9 1.6-9 1.6h-67.6l38.3-227.8c4-13.6 16.5-23.3 31-23.3h64.4c26.2 0 52.1-4.7 76.6-13.9 24.4-9.2 47-22.8 66.7-40 19.7-17.2 36.1-37.9 48.4-60.9 12.3-23.1 20.4-48.2 23.8-74.1zm-349.2 440h-6.2c-3.8 0-7.6-0.8-11.1-2.4-3.4-1.6-6.5-4-8.9-6.9-2.5-2.9-4.3-6.3-5.3-10-1-3.6-1.2-7.5-0.6-11.2l1.9-11.3h11.9c3.5 0 6.9-0.6 10.2-1.8 3.3-1.2 6.4-3 9-5.2 2.7-2.3 5-5 6.7-8 1.8-3 3-6.3 3.6-9.8l0.4-2.3z"/></g></svg>