<svg version="1.2" xmlns="http://www.w3.org/2000/svg" viewBox="0 0 586 158" width="586" height="158"><style>.a{fill:#28356a}.b{fill:#298fc2}</style><filter id="f0"><feFlood flood-color="#ffffff" flood-opacity="1" /><feBlend mode="normal" in2="SourceGraphic"/><feComposite in2="SourceAlpha" operator="in" /></filter><g filter="url(#f0)"><path fill-rule="evenodd" class="a" d="m103.8 12.2c5.9 7 7.9 16.9 5.8 29.5-4.5 28.9-21.8 43.4-51.8 43.4h-14.4c-3.1 0-5.8 2.3-6.3 5.4l-5 31.6c-0.4 3.1-3.1 5.3-6.2 5.3h-21.8c-2.3 0-4.1-2-3.7-4.4l18.4-117.1c0.5-3.1 3.2-5.3 6.3-5.3h45.5c15.3 0 26.7 4 33.2 11.6zm-30.1 18.4c-4.1-4.7-11.8-4.7-20-4.7h-3.2c-1.9 0-3.4 1.4-3.7 3.2l-4.9 30.6h6.9c12.1 0 24.6 0 27.1-16.4 0.9-5.7 0.1-9.9-2.2-12.7z"/><path fill-rule="evenodd" class="a" d="m211.7 46.3l-11.8 74.9c-0.5 3.1-3.2 5.4-6.3 5.4h-19.6c-2.4 0-4.1-2.1-3.8-4.5l1-6c0 0-10.8 12.5-30.2 12.5-11.3 0-20.8-3.3-27.5-11.1-7.2-8.6-10.2-20.8-8.1-33.6 4-25.7 24.6-44 48.7-44 10.5 0 21.1 2.3 25.8 9.1l1.5 2.3 1-6.2c0.2-1.8 1.9-3.2 3.7-3.2h21.8c2.4 0 4.1 2.1 3.8 4.4zm-37.9 22.7c-3.3-3.9-8.3-5.9-14.5-5.9-12.4 0-22.5 8.6-24.5 21-1 6.1 0.2 11.6 3.5 15.4 3.2 3.8 8.3 5.9 14.6 5.9 12.6 0 22.5-8.4 24.6-20.9 1-6.1-0.3-11.5-3.7-15.5z"/><path fill-rule="evenodd" class="a" d="m322.4 43.8h-21.9c-2.1 0-4.1 1-5.3 2.8l-30.2 44.6-12.8-42.9c-0.8-2.7-3.3-4.5-6.1-4.5h-21.5c-2.6 0-4.4 2.6-3.6 5l24.1 71.1-22.7 32.1c-1.7 2.6 0 6 3.1 6h21.9c2.1 0 4-1 5.2-2.7l72.9-105.5c1.8-2.5 0-6-3.1-6z"/><path fill-rule="evenodd" class="b" d="m428.7 12.2c5.9 7 7.8 16.9 5.8 29.5-4.6 28.9-21.9 43.4-51.9 43.4h-14.4c-3.1 0-5.8 2.3-6.2 5.4l-5.3 33.2c-0.3 2.2-2.2 3.7-4.3 3.7h-23.4c-2.3 0-4.1-2-3.7-4.4l18.4-117.1c0.5-3.1 3.1-5.3 6.2-5.3h45.6c15.2 0 26.7 4 33.2 11.6zm-30.2 18.4c-4-4.7-11.7-4.7-20-4.7h-3.1c-1.9 0-3.5 1.4-3.8 3.2l-4.8 30.6h6.9c12.1 0 24.5 0 27-16.4 0.9-5.7 0.2-9.9-2.2-12.7z"/><path fill-rule="evenodd" class="b" d="m536.5 46.3l-11.8 74.9c-0.5 3.1-3.1 5.4-6.2 5.4h-19.7c-2.3 0-4.1-2.1-3.7-4.5l1-6c0 0-10.8 12.5-30.2 12.5-11.3 0-20.8-3.3-27.5-11.1-7.3-8.6-10.2-20.8-8.1-33.6 4-25.7 24.6-44 48.7-44 10.5 0 21 2.3 25.7 9.1l1.6 2.3 0.9-6.2c0.3-1.8 1.9-3.2 3.8-3.2h21.8c2.3 0 4.1 2.1 3.7 4.4zm-37.8 22.7c-3.4-3.9-8.4-5.9-14.6-5.9-12.4 0-22.4 8.6-24.4 21-1 6.1 0.2 11.6 3.4 15.4 3.3 3.8 8.3 5.9 14.6 5.9 12.7 0 22.6-8.4 24.7-20.9 0.9-6.1-0.4-11.5-3.7-15.5z"/><path fill-rule="evenodd" class="b" d="m556.7 3.8l-18.7 119.3c-0.4 2.3 1.4 4.3 3.7 4.3h18.8c3.1 0 5.8-2.2 6.2-5.3l18.5-117.1c0.4-2.3-1.4-4.4-3.8-4.4h-21c-1.9 0-3.5 1.3-3.7 3.2z"/></g></svg>