<svg version="1.2" xmlns="http://www.w3.org/2000/svg" viewBox="0 0 100 100" width="100" height="100"><style>.a{fill:#fff}</style><path class="a" d="m4.5 34.7c2.8 0 4.3-1.6 4.3-4.5v-12.8c0-5.6 3.1-8.5 8.5-8.5h13.2c2.8 0 4.4-1.6 4.4-4.4 0-2.8-1.6-4.4-4.4-4.4h-13.3c-11.3 0-17.1 5.6-17.1 16.8v13.3c0 2.9 1.6 4.5 4.4 4.5zm91 0c2.9 0 4.4-1.6 4.4-4.5v-13.3c0-11.2-5.7-16.8-17.1-16.8h-13.2c-2.9 0-4.5 1.6-4.5 4.4 0 2.8 1.6 4.4 4.5 4.4h13.1c5.4 0 8.5 2.9 8.5 8.5v12.8c0 2.9 1.5 4.5 4.3 4.5zm-47.8 10.6v-19c0-1.3-1.1-2.4-2.4-2.4h-18.9c-1.4 0-2.4 1.1-2.4 2.4v19c0 1.3 1 2.3 2.4 2.3h18.9c1.3 0 2.4-1 2.4-2.3zm28.3 0v-19c0-1.3-1-2.4-2.4-2.4h-18.9c-1.3 0-2.4 1.1-2.4 2.4v19c0 1.3 1.1 2.3 2.4 2.3h18.9c1.4 0 2.4-1 2.4-2.3zm-18.9-16.6h14.2v14.2h-14.2zm-28.4 0h14.2v14.2h-14.2zm19 45.1v-19c0-1.3-1.1-2.4-2.4-2.4h-18.9c-1.4 0-2.4 1.1-2.4 2.4v19c0 1.3 1 2.3 2.4 2.3h18.9c1.3 0 2.4-1 2.4-2.3zm27.6-14.8v-5.9h-5.9v5.9zm-16.4 0v-5.9h-5.9v5.9zm-30.2-1.8h14.2v14.2h-14.2zm38.4 10.1v-6h-5.9v6zm2.3 32.7h13.3c11.4 0 17.1-5.7 17.1-16.9v-13.2c0-2.9-1.6-4.5-4.4-4.5-2.9 0-4.4 1.6-4.4 4.5v12.8c0 5.7-3.1 8.5-8.4 8.5h-13.2c-2.8 0-4.4 1.6-4.4 4.4 0 2.8 1.6 4.4 4.4 4.4zm-52.4 0h13.4c2.8 0 4.4-1.6 4.4-4.4 0-2.8-1.6-4.4-4.4-4.4h-13.2c-5.4 0-8.5-2.8-8.5-8.5v-12.8c0-2.9-1.6-4.5-4.3-4.5-2.9 0-4.4 1.6-4.4 4.5v13.2c0 11.3 5.7 16.9 17 16.9zm41.8-24.5v-5.9h-5.9v5.9zm16.4 0v-5.9h-6v5.9zm-8.1-36.6v-5.9h-5.9v5.9zm-28.4 0v-5.9h-6v5.9zm0 28.4v-6h-6v6z"/></svg>