<svg version="1.2" xmlns="http://www.w3.org/2000/svg" viewBox="0 0 800 698" width="800" height="698"><style>.a{fill:#fff}</style><path class="a" d="m627.8 0h-455.6c-95 0-172.2 79-172.2 176v174.2c0 97 77.2 176 172.2 176h288l209.4 171.8v-177.1c75.7-19.3 130.4-89.1 130.4-170.7v-174.2c0-97-77.2-176-172.2-176zm-443.6 338.2c-20.4 0-38.5-4.4-50.3-10.8l8.6-34.7c8.9 5.4 27.4 11.8 41.7 11.8 14.7 0 20.7-5.1 20.7-13.1 0-7.9-4.8-11.7-22.9-17.8-32.2-10.8-44.6-28.3-44.3-46.8 0-29 24.9-51 63.4-51 18.2 0 34.4 4.1 44 8.9l-8.6 33.5c-7-3.9-20.4-9-33.8-9-11.8 0-18.5 4.8-18.5 12.8 0 7.3 6.1 11.1 25.2 17.8 29.6 10.2 42 25.2 42.4 48.1 0 29-23 50.3-67.6 50.3zm332.2-3.1h-47.1v-84.7c0-22.7-7.4-35.7-23-35.7-11.1 0-19.1 7.6-22.3 16.9-1.2 3.4-1.9 8.6-1.9 12.4v91.1h-47.1v-87.3c0-19.8-7-33.1-22.3-33.1-12.4 0-19.8 9.5-22.6 17.5-1.6 3.8-1.9 8.3-1.9 12.1v90.8h-47.2v-106.1c0-19.4-0.6-36-1.2-49.7h40.7l2.3 21h0.9c6.7-9.8 20.4-24.5 47.2-24.5 20 0 35.9 10.2 42.6 26.4h0.7c5.7-7.9 12.7-14.3 20-18.7 8.7-5.1 18.2-7.7 29.7-7.7 29.9 0 52.5 21 52.5 67.5 0 0 0 91.8 0 91.8zm79.9 3.1c-20.4 0-38.5-4.4-50.3-10.8l8.6-34.7c8.9 5.4 27.4 11.8 41.7 11.8 14.7 0 20.7-5.1 20.7-13.1 0-7.9-4.8-11.7-22.9-17.8-32.2-10.8-44.6-28.3-44.3-46.8 0-29 24.9-51 63.4-51 18.1 0 34.4 4.1 44 8.9l-8.6 33.5c-7-3.9-20.4-9-33.8-9-11.8 0-18.5 4.8-18.5 12.8 0 7.3 6.1 11.1 25.2 17.8 29.6 10.2 42 25.2 42.3 48.1 0 29-22.9 50.3-67.5 50.3z"/></svg>