<svg version="1.2" xmlns="http://www.w3.org/2000/svg" viewBox="0 0 696 800" width="696" height="800"><style>.a{fill:#fff}</style><path class="a" d="m365.7 0.7c43.6-0.7 87-0.3 130.3-0.7 2.6 51 21 103 58.3 139.1 37.3 36.9 90.1 53.9 141.3 59.6v134.2c-48-1.6-96.3-11.5-140-32.3-19-8.5-36.7-19.6-54-31-0.2 97.4 0.4 194.7-0.6 291.7-2.6 46.6-18 93-45.1 131.4-43.6 63.9-119.3 105.6-197 106.9-47.7 2.7-95.3-10.3-135.9-34.2-67.3-39.7-114.7-112.4-121.6-190.4-0.8-16.7-1.1-33.3-0.4-49.6 6-63.4 37.4-124.1 86.1-165.4 55.2-48.1 132.5-71 204.9-57.4 0.7 49.4-1.3 98.7-1.3 148.1-33.1-10.7-71.7-7.7-100.6 12.3-21.1 13.7-37.2 34.7-45.5 58.4-6.9 16.9-4.9 35.6-4.5 53.6 7.9 54.7 60.5 100.7 116.6 95.7 37.3-0.4 72.9-22 92.3-53.6 6.3-11.1 13.3-22.4 13.7-35.5 3.3-59.6 2-119 2.4-178.6 0.3-134.4-0.4-268.4 0.6-402.3z"/></svg>